<?xml version="1.0" encoding="UTF-8" standalone="no"?>
<!DOCTYPE svg  PUBLIC '-//W3C//DTD SVG 1.1//EN'  'http://www.w3.org/Graphics/SVG/1.1/DTD/svg11.dtd'>
<svg xmlns="http://www.w3.org/2000/svg" version="1.1">
<defs>
<font id="Sun-Light" horiz-adv-x="500">
<font-face descent="-200" font-weight="300" underline-thickness="0" bbox="-11 -177 875 858" ascent="800" panose-1="0 0 0 0 0 0 0 0 0 0" cap-height="675" font-family="Sun Light" units-per-em="1000" x-height="493" underline-position="0" unicode-range="U+0020-00FE"/>
<missing-glyph/>
<glyph glyph-name="space" unicode=" " horiz-adv-x="240"/>
<glyph d="M257 675l-13 -539h-47l-12 539h72zM261 35q0 -24 -8 -32.5t-33 -8.5t-34 8.5t-9 31.5q0 24 8.5 32t34.5 8q25 0 33 -7.5t8 -31.5z" glyph-name="exclam" unicode="!" horiz-adv-x="374"/>
<glyph d="M327 675l-10 -252h-43l-9 252h62zM153 675l-9 -252h-43l-10 252h62z" glyph-name="quotedbl" unicode='&quot;' horiz-adv-x="423"/>
<glyph d="M470 213h-121l-25 -213h-50l25 213h-130l-25 -213h-50l24 213h-86v43h91l24 195h-115v42h120l21 182h50l-21 -182h130l22 182h50l-22 -182h88v-42h-93l-23 -195h116v-43zM327 451h-130l-23 -195h130z" glyph-name="numbersign" unicode="#" horiz-adv-x="502"/>
<glyph d="M443 172q0 -67 -47 -112.5t-126 -57.5l-6 -107h-39l-5 106q-78 3 -157 49l21 35q64 -38 144 -38q70 0 111 32t41 87q0 44 -32 75t-77.5 51t-91.5 41.5t-78 59.5t-32 91q0 60 40.5 101.5t110.5 52.5l5 106h39l6 -105q59 -4 128 -37l-16 -34q-60 27 -129 27 q-60 0 -92 -29.5t-32 -74.5q0 -44 32.5 -75t78.5 -51t92 -42t78.5 -59.5t32.5 -91.5z" glyph-name="dollar" unicode="$"/>
<glyph d="M327 526q0 -156 -133 -156q-72 0 -99.5 35.5t-27.5 117.5q0 159 134 159q69 0 97.5 -38t28.5 -118zM601 666l-478 -680l-35 23l478 680zM622 149q0 -156 -133 -156q-72 0 -99.5 35.5t-27.5 117.5q0 159 134 159q69 0 97.5 -38t28.5 -118zM274 522q0 60 -17.5 90t-59.5 30 q-38 0 -57.5 -26.5t-19.5 -87.5q0 -62 18.5 -90t59.5 -28t58.5 28.5t17.5 83.5zM569 145q0 60 -17.5 90t-59.5 30q-38 0 -57.5 -26.5t-19.5 -87.5q0 -62 18 -90t59 -28q42 0 59.5 28.5t17.5 83.5z" glyph-name="percent" unicode="%" horiz-adv-x="689"/>
<glyph d="M656 3q-22 -10 -53 -10q-35 0 -146 89q-91 -89 -210 -89q-91 0 -137.5 44t-46.5 124q0 64 33 111.5t94 90.5q-76 109 -76 170q0 66 44 107.5t122 41.5q72 0 110 -33t38 -86q0 -60 -38 -101.5t-126 -98.5q80 -104 196 -209q74 101 74 218h58q0 -62 -27 -130t-69 -121 q99 -82 128 -82h32v-36zM371 552q0 38 -24.5 62.5t-74.5 24.5q-47 0 -73.5 -27t-26.5 -70q0 -51 66 -146q78 54 105.5 85.5t27.5 70.5zM423 111q-116 101 -206 218q-46 -35 -70.5 -70.5t-24.5 -84.5q0 -67 36 -101.5t104 -34.5q88 0 161 73z" glyph-name="ampersand" unicode="&amp;" horiz-adv-x="704"/>
<glyph d="M194 675l-9 -252h-43l-9 252h61z" glyph-name="quotesingle" unicode="&apos;" horiz-adv-x="320"/>
<glyph d="M253 -155l-39 -17q-59 91 -93 208t-34 234q0 126 35.5 244t91.5 209l39 -17q-107 -210 -107 -426q0 -221 107 -435z" glyph-name="parenleft" unicode="(" horiz-adv-x="310"/>
<glyph d="M223 283q0 -127 -35.5 -245.5t-91.5 -208.5l-39 16q107 210 107 428q0 221 -107 433l39 18q59 -90 93 -207t34 -234z" glyph-name="parenright" unicode=")" horiz-adv-x="310"/>
<glyph d="M428 457l-28 -50l-128 87l8 -154h-60l10 154l-128 -87l-28 51l137 69l-137 69l28 50l128 -86l-10 153h60l-8 -153l128 86l28 -50l-137 -69z" glyph-name="asterisk" unicode="*"/>
<glyph d="M453 274h-178v-195h-51v195h-180v44h180v191h51v-191h178v-44z" glyph-name="plus" unicode="+"/>
<glyph d="M197 34q0 -64 -24 -101.5t-84 -73.5l-24 29q70 45 70 90q0 13 -10.5 24.5t-10.5 29.5q0 27 8 36t35 9q25 0 32.5 -9.5t7.5 -33.5z" glyph-name="comma" unicode="," horiz-adv-x="306"/>
<glyph d="M230 272h-195v48h195v-48z" glyph-name="hyphen" unicode="-" horiz-adv-x="231"/>
<glyph d="M197 36q0 -26 -8.5 -34t-33.5 -8t-33 8t-8 32q0 26 8 34.5t34 8.5q25 0 33 -8t8 -33z" glyph-name="period" unicode="." horiz-adv-x="290"/>
<glyph d="M484 709l-427 -813h-57l427 813h57z" glyph-name="slash" unicode="/"/>
<glyph d="M452 281q0 -148 -51 -218t-154 -70q-108 0 -154 60.5t-46 222.5q0 161 53.5 228.5t154.5 67.5t149 -63.5t48 -227.5zM391 273q0 142 -34.5 197t-107.5 55t-107 -54.5t-34 -187.5q0 -134 33 -188.5t113 -54.5q73 0 105 56.5t32 176.5z" glyph-name="zero" unicode="0"/>
<glyph d="M441 0h-364v49h160v454l-144 -50l-13 37l170 74h48v-515h143v-49z" glyph-name="one" unicode="1"/>
<glyph d="M439 0h-377v42q185 158 239.5 224t54.5 135q0 63 -36 92t-93 29q-58 0 -141 -26l-11 42q96 33 176 33q74 0 122.5 -40.5t48.5 -121.5q0 -44 -12.5 -79t-49.5 -78.5t-84.5 -86t-136.5 -114.5h300v-51z" glyph-name="two" unicode="2"/>
<glyph d="M426 92q0 -105 -49.5 -154t-156.5 -49q-70 0 -184 37l8 38q115 -26 174 -26q77 0 109 34.5t32 111.5q0 72 -34.5 108.5t-114.5 36.5h-68v48h65q131 0 131 133q0 56 -28 84.5t-97 28.5q-76 0 -142 -24l-10 41q83 31 174 31q83 0 125.5 -42.5t42.5 -108.5 q0 -68 -29.5 -109.5t-77.5 -51.5q61 -2 95.5 -51.5t34.5 -115.5z" glyph-name="three" unicode="3"/>
<glyph d="M464 53h-87v-157h-59v157h-287v45q140 273 262 466h84v-459h87v-52zM318 105v412q-149 -242 -232 -412h232z" glyph-name="four" unicode="4"/>
<glyph d="M430 99q0 -108 -51 -159t-162 -51q-65 0 -178 34l6 37q122 -23 177 -23q74 0 109 34t35 117q0 77 -39 119.5t-120 42.5q-64 0 -136 -15l22 329h291v-52h-244l-15 -221q35 7 102 7q98 0 150.5 -53.5t52.5 -145.5z" glyph-name="five" unicode="5"/>
<glyph d="M448 208q0 -101 -51.5 -158t-137.5 -57q-66 0 -106 26t-63 97t-23 193q0 109 17.5 185t50 115.5t70 56t85.5 16.5q56 0 143 -28l-8 -39q-76 20 -132 20q-78 0 -121 -74.5t-44 -224.5q89 50 158 50q75 0 118.5 -47.5t43.5 -130.5zM387 194q0 144 -125 144q-54 0 -133 -47 v-4q0 -128 33 -187.5t102 -59.5q61 0 92 40.5t31 113.5z" glyph-name="six" unicode="6"/>
<glyph d="M456 520l-147 -309q-88 -185 -165 -321l-39 15l279 607h-336v52h408v-44z" glyph-name="seven" unicode="7"/>
<glyph d="M450 162q0 -75 -53 -122t-155 -47q-95 0 -143.5 42.5t-48.5 115.5q0 63 36.5 108t105.5 86q-127 70 -127 175q0 72 51 117t141 45q94 0 136 -42t42 -109q0 -55 -34 -95.5t-109 -81.5q84 -43 121 -85.5t37 -106.5zM375 519q0 118 -131 118q-54 0 -86.5 -29.5t-32.5 -77.5 q0 -47 28.5 -82.5t93.5 -70.5q69 38 98.5 69.5t29.5 72.5zM390 151q0 53 -36.5 91t-117.5 79q-66 -39 -96 -75.5t-30 -83.5q0 -58 37.5 -90.5t108.5 -32.5q59 0 96.5 31t37.5 81z" glyph-name="eight" unicode="8"/>
<glyph d="M433 256q0 -109 -18 -184.5t-52 -113.5t-71.5 -53.5t-86.5 -15.5q-59 0 -150 29l6 39q84 -21 140 -21q80 0 125 71.5t46 221.5q-86 -50 -158 -50q-75 0 -118.5 47t-43.5 130q0 101 51.5 158t137.5 57q66 0 106 -26t63 -96.5t23 -192.5zM371 273v4q0 129 -32.5 188.5 t-102.5 59.5q-61 0 -92 -41t-31 -114q0 -143 125 -143q56 0 133 46z" glyph-name="nine" unicode="9"/>
<glyph d="M207 452q0 -24 -8.5 -32.5t-32.5 -8.5t-32.5 8t-8.5 31q0 24 9 32.5t33 8.5q23 0 31.5 -8t8.5 -31zM207 41q0 -24 -8.5 -32.5t-32.5 -8.5t-32.5 8t-8.5 31q0 24 9 32.5t33 8.5q23 0 31.5 -8t8.5 -31z" glyph-name="colon" unicode=":" horiz-adv-x="306"/>
<glyph d="M207 452q0 -24 -8.5 -32.5t-32.5 -8.5t-33 8t-9 31q0 24 9 32.5t33 8.5t32.5 -8t8.5 -31zM207 33q0 -59 -25.5 -98.5t-83.5 -75.5l-23 27q72 48 72 93q0 12 -11.5 23t-11.5 30q0 25 8 33.5t35 8.5q23 0 31.5 -9.5t8.5 -31.5z" glyph-name="semicolon" unicode=";" horiz-adv-x="306"/>
<glyph d="M448 469l-346 -177l346 -177l-26 -44l-383 200v41l383 200z" glyph-name="less" unicode="&lt;"/>
<glyph d="M449 365h-398v45h398v-45zM449 174h-398v45h398v-45z" glyph-name="equal" unicode="="/>
<glyph d="M462 271l-384 -200l-26 43l346 177l-346 177l26 44l384 -200v-41z" glyph-name="greater" unicode="&gt;"/>
<glyph d="M423 531q0 -40 -16.5 -73.5t-40.5 -59t-48.5 -51t-41.5 -59.5t-18 -74l-1 -78h-47l-4 86q-2 36 13.5 70.5t38 62.5t45.5 54t39.5 54t16.5 54q0 55 -33.5 86t-93.5 31q-61 0 -130 -21l-12 38q80 31 153 31q91 0 135.5 -41.5t44.5 -109.5zM275 34q0 -24 -8 -32t-33 -8 q-26 0 -34.5 8t-8.5 32t8.5 32t34.5 8q25 0 33 -8t8 -32z" glyph-name="question" unicode="?"/>
<glyph d="M875 408q0 -147 -72 -232t-223 -85h-29l5 94q-42 -49 -80 -74t-84 -25q-59 0 -85 34.5t-26 101.5q0 130 59.5 203.5t168.5 73.5q39 0 132 -10l-40 -352q108 0 161 72.5t53 180.5q0 136 -62 205t-208 69q-97 0 -175 -39.5t-126 -104.5t-73 -143.5t-25 -162.5 q0 -327 332 -327q53 0 126 16t121 37l11 -38q-55 -26 -131 -43t-145 -17q-187 0 -279.5 94t-92.5 265q0 138 52.5 252t160 185t253.5 71q321 0 321 -301zM579 444q-34 10 -75 10q-82 0 -123.5 -60t-41.5 -159q0 -52 15.5 -77.5t51.5 -25.5q37 0 71.5 26t79.5 87z" glyph-name="at" unicode="@" horiz-adv-x="1014"/>
<glyph d="M497 0h-66q-11 47 -39 153h-274q-16 -60 -36 -153h-62q84 338 200 675h71q128 -369 206 -675zM379 202q-61 207 -130 409q-78 -249 -119 -409h249z" glyph-name="A" unicode="A" horiz-adv-x="517"/>
<glyph d="M486 202q0 -93 -63 -148.5t-186 -55.5q-32 0 -77 1t-61 1v675h172q90 0 134.5 -42t44.5 -109q0 -59 -29.5 -99.5t-77.5 -59.5q58 -6 100.5 -49t42.5 -114zM388 515q0 51 -34 82t-100 31h-95v-249h77q78 0 115 40t37 96zM421 194q0 138 -172 138h-90v-280q52 -5 100 -5 q81 0 121.5 40t40.5 107z" glyph-name="B" unicode="B" horiz-adv-x="551"/>
<glyph d="M481 92q-78 -99 -193 -99q-111 0 -171.5 85t-60.5 249q0 165 66.5 260t178.5 95q114 0 168 -111l-33 -24q-49 85 -133 85q-61 0 -103.5 -42.5t-60.5 -106t-18 -141.5q0 -298 181 -298q82 0 150 78z" glyph-name="C" unicode="C" horiz-adv-x="520"/>
<glyph d="M513 353q0 -168 -76 -261t-228 -93q-20 0 -58.5 0.5t-51.5 0.5v675q22 0 67 0.5t72 0.5q73 0 128 -26.5t86 -73t46 -102t15 -121.5zM448 343q0 284 -224 284q-43 0 -64 -1v-575q36 -3 73 -3q215 0 215 295z" glyph-name="D" unicode="D" horiz-adv-x="569"/>
<glyph d="M411 0h-312v675h308v-50h-247v-254h203v-49h-203v-272h251v-50z" glyph-name="E" unicode="E" horiz-adv-x="470"/>
<glyph d="M401 626h-241v-257h210v-49h-210v-320h-61v675h302v-49z" glyph-name="F" unicode="F" horiz-adv-x="445"/>
<glyph d="M476 68q-77 -75 -191 -75q-106 0 -167.5 83.5t-61.5 255.5q0 163 70.5 256.5t172.5 93.5q92 0 168 -74l-26 -31q-69 55 -136 55q-84 0 -134 -76t-50 -212q0 -300 178 -300q73 0 117 38v228h-105v48h165v-290z" glyph-name="G" unicode="G" horiz-adv-x="566"/>
<glyph d="M559 0h-61v332h-338v-332h-61v675h61v-290h338v290h61v-675z" glyph-name="H" unicode="H" horiz-adv-x="658"/>
<glyph d="M160 0h-61v675h61v-675z" glyph-name="I" unicode="I" horiz-adv-x="259"/>
<glyph d="M169 68q0 -87 -17 -141.5t-66 -99.5l-31 26q31 36 42 85.5t11 126.5v610h61v-607z" glyph-name="J" unicode="J" horiz-adv-x="268"/>
<glyph d="M482 0h-78l-244 340v-340h-61v675h61v-306l228 306h76l-248 -310z" glyph-name="K" unicode="K" horiz-adv-x="511"/>
<glyph d="M402 0h-303v675h61v-625h242v-50z" glyph-name="L" unicode="L" horiz-adv-x="421"/>
<glyph d="M749 0h-65q-8 356 -42 599h-1l-209 -599h-42l-210 599h-1q-24 -264 -29 -599h-62q8 346 51 675h78l200 -569h1l201 569h76q47 -373 54 -675z" glyph-name="M" unicode="M" horiz-adv-x="838"/>
<glyph d="M553 0h-54l-346 592v-592h-54v675h80l319 -542v542h55v-675z" glyph-name="N" unicode="N" horiz-adv-x="652"/>
<glyph d="M571 349q0 -180 -74 -268t-193 -88q-248 0 -248 334q0 179 74 267t193 88q248 0 248 -333zM506 334q0 300 -195 300q-90 0 -140 -71.5t-50 -219.5q0 -302 195 -302q89 0 139.5 72t50.5 221z" glyph-name="O" unicode="O" horiz-adv-x="627"/>
<glyph d="M473 478q0 -97 -66.5 -159t-207.5 -62h-39v-257h-61v675q15 0 55.5 0.5t77.5 0.5q241 0 241 -198zM408 469q0 159 -188 159h-60v-322h62q94 0 140 43.5t46 119.5z" glyph-name="P" unicode="P" horiz-adv-x="504"/>
<glyph d="M692 -119l-23 -28q-41 23 -84 28.5t-76 2.5t-66.5 -0.5t-67 28.5t-65.5 81q-123 -2 -188.5 78.5t-65.5 255.5q0 179 74 267t193 88q248 0 248 -333q0 -156 -57.5 -244.5t-160.5 -107.5q29 -36 64 -50.5t69 -13.5t67.5 3t70.5 -10t68 -45zM506 334q0 300 -195 300 q-90 0 -140 -71.5t-50 -219.5q0 -302 195 -302q89 0 139.5 72t50.5 221z" glyph-name="Q" unicode="Q" horiz-adv-x="627"/>
<glyph d="M514 0h-77l-220 310h-57v-310h-61v675q16 0 65.5 0.5t88.5 0.5q106 0 162.5 -46t56.5 -124q0 -91 -55.5 -135t-135.5 -52zM408 495q0 66 -40.5 100t-131.5 34h-76v-271h89q75 0 117 36t42 101z" glyph-name="R" unicode="R" horiz-adv-x="526"/>
<glyph d="M451 179q0 -83 -60.5 -134.5t-156.5 -51.5q-85 0 -177 57l21 36q73 -44 148 -44q73 0 116 34.5t43 94.5q0 48 -33.5 81.5t-80.5 54.5t-94.5 43.5t-81 63.5t-33.5 100q0 74 53.5 121t137.5 47q86 0 154 -43l-16 -35q-70 30 -136 30q-62 0 -95.5 -31.5t-33.5 -79.5 t33.5 -81.5t81 -55t95.5 -44.5t81.5 -64t33.5 -99z" glyph-name="S" unicode="S" horiz-adv-x="496"/>
<glyph d="M450 625h-187v-625h-61v625h-186v50h434v-50z" glyph-name="T" unicode="T" horiz-adv-x="466"/>
<glyph d="M555 250q0 -130 -63 -193.5t-177 -63.5q-111 0 -164.5 58.5t-53.5 186.5v437h61v-427q0 -113 40.5 -160t130.5 -47q81 0 123 46.5t42 156.5v431h61v-425z" glyph-name="U" unicode="U" horiz-adv-x="652"/>
<glyph d="M491 675q-76 -349 -196 -675h-67q-137 381 -211 675h67q47 -191 184 -608q102 320 160 608h63z" glyph-name="V" unicode="V" horiz-adv-x="513"/>
<glyph d="M824 675q-92 -384 -190 -675h-66l-124 470l-20 91h-1l-20 -94l-114 -467h-70q-108 323 -190 675h66q60 -271 163 -597h1l13 59l130 538h52l137 -524l17 -73h1q88 296 153 597h62z" glyph-name="W" unicode="W" horiz-adv-x="851"/>
<glyph d="M507 0h-71q-86 173 -174 305q-83 -125 -167 -305h-65q67 149 202 350q-109 172 -184 325h70q71 -147 153 -276q78 117 151 276h65q-65 -140 -185 -317q127 -199 205 -358z" glyph-name="X" unicode="X" horiz-adv-x="540"/>
<glyph d="M480 675q-130 -260 -209 -376v-299h-61v299q-106 160 -209 376h70q82 -176 176 -323q76 114 165 323h68z" glyph-name="Y" unicode="Y" horiz-adv-x="480"/>
<glyph d="M443 0h-401v36l310 589h-295v50h368v-43l-306 -580h324v-52z" glyph-name="Z" unicode="Z" horiz-adv-x="484"/>
<glyph d="M282 -173h-153v912h153v-41h-98v-830h98v-41z" glyph-name="bracketleft" unicode="[" horiz-adv-x="351"/>
<glyph d="M500 -104h-57l-427 813h57z" glyph-name="backslash" unicode="\"/>
<glyph d="M222 -173h-153v41h97v830h-97v41h153v-912z" glyph-name="bracketright" unicode="]" horiz-adv-x="351"/>
<glyph d="M455 388l-47 -21l-158 293l-159 -293l-46 22l177 320h56z" glyph-name="asciicircum" unicode="^"/>
<glyph d="M500 -173h-500v47h500v-47z" glyph-name="underscore" unicode="_"/>
<glyph d="M233 586l-27 -23l-142 119l43 35z" glyph-name="grave" unicode="`" horiz-adv-x="314"/>
<glyph d="M394 0h-46l-5 59q-80 -66 -158 -66q-67 0 -103 34t-36 96q0 76 60.5 119.5t186.5 43.5h44v58q0 57 -28.5 84t-92.5 27q-58 0 -134 -29l-11 39q80 35 165 35q158 0 158 -146v-354zM337 101v142h-51q-104 0 -142 -28t-38 -80q0 -45 24 -71t70 -26q65 0 137 63z" glyph-name="a" unicode="a" horiz-adv-x="487"/>
<glyph d="M456 264q0 -137 -66 -204t-172 -67q-60 0 -126 14v702h58v-270q75 61 142 61q72 0 118 -66t46 -170zM395 250q0 91 -31 147.5t-87 56.5q-24 0 -59 -17t-68 -47v-339q39 -13 85 -13q70 0 115 54.5t45 157.5z" glyph-name="b" unicode="b" horiz-adv-x="512"/>
<glyph d="M392 66q-68 -73 -157 -73q-88 0 -135 62.5t-47 183.5q0 122 54.5 191.5t142.5 69.5q74 0 128 -60l-24 -31q-49 45 -105 45q-64 0 -99 -54t-35 -149q0 -211 132 -211q64 0 121 56z" glyph-name="c" unicode="c" horiz-adv-x="428"/>
<glyph d="M420 0h-47l-7 57q-82 -64 -148 -64q-71 0 -116 65t-45 170q0 139 65.5 205.5t164.5 66.5q37 0 75 -4v213h58v-709zM362 103v338q-45 14 -88 14q-70 0 -113 -54t-43 -158q0 -93 31 -148t86 -55t127 63z" glyph-name="d" unicode="d" horiz-adv-x="512"/>
<glyph d="M414 243h-300v-11q0 -101 37 -147t110 -46q69 0 139 32l13 -37q-82 -41 -168 -41q-192 0 -192 239q0 127 51 197.5t143 70.5q181 0 167 -257zM356 286v3q0 167 -115 167q-58 0 -90.5 -48.5t-36.5 -121.5h242z" glyph-name="e" unicode="e" horiz-adv-x="482"/>
<glyph d="M324 688l-15 -36q-38 19 -71 19q-76 0 -76 -90v-88h118v-43h-118v-450h-58v450h-87v43h87v84q0 65 30.5 102t89.5 37q54 0 100 -28z" glyph-name="f" unicode="f" horiz-adv-x="291"/>
<glyph d="M420 14q0 -109 -45.5 -150t-135.5 -41q-68 0 -146 26l7 36q136 -28 199 -6t63 116v78q-79 -59 -145 -59q-69 0 -114.5 64.5t-45.5 163.5q0 127 66.5 192.5t162.5 65.5q60 0 134 -14v-472zM362 122v318q-42 15 -89 15q-68 0 -111.5 -53t-43.5 -143t31 -145t87 -55 q55 0 126 63z" glyph-name="g" unicode="g" horiz-adv-x="513"/>
<glyph d="M448 283q0 -25 -1.5 -126.5t-1.5 -156.5h-57q0 49 1 142.5t1 122.5q0 99 -26.5 143.5t-79.5 44.5q-59 0 -134 -66v-387h-58v709h58v-274q78 65 154 65q144 0 144 -217z" glyph-name="h" unicode="h" horiz-adv-x="538"/>
<glyph d="M159 640q0 -23 -6.5 -30t-30.5 -7t-31.5 7t-7.5 30t7.5 30t31.5 7t30.5 -6.5t6.5 -30.5zM150 0h-58v493h58v-493z" glyph-name="i" unicode="i" horiz-adv-x="243"/>
<glyph d="M159 640q0 -23 -6.5 -30t-30.5 -7t-31.5 7t-7.5 30t7.5 30t31.5 7t30.5 -6.5t6.5 -30.5zM150 36q0 -73 -20.5 -121.5t-71.5 -90.5l-33 22q67 69 67 171v476h58v-457z" glyph-name="j" unicode="j" horiz-adv-x="243"/>
<glyph d="M427 0h-72l-205 268v-268h-58v709h58v-417l169 201h75l-190 -206z" glyph-name="k" unicode="k" horiz-adv-x="442"/>
<glyph d="M227 2q-32 -8 -57 -8q-43 0 -60.5 19.5t-17.5 77.5v618h58v-596q0 -46 7.5 -60t33.5 -14q6 0 17.5 0.5t15.5 0.5z" glyph-name="l" unicode="l" horiz-adv-x="263"/>
<glyph d="M723 284q0 -32 -1.5 -133t-1.5 -151h-58q0 44 1 137.5t1 129.5q0 186 -98 186q-56 0 -139 -74q9 -40 9 -95v-284h-58v267q0 186 -98 186q-52 0 -130 -66v-387h-58v493h49l6 -61q76 68 153 68q44 0 73 -23.5t42 -57.5q94 81 171 81q137 0 137 -216z" glyph-name="m" unicode="m" horiz-adv-x="811"/>
<glyph d="M448 283q0 -31 -1.5 -132t-1.5 -151h-57q0 44 1 137.5t1 129.5q0 186 -105 186q-57 0 -135 -66v-387h-58v493h49l6 -61q76 68 158 68q143 0 143 -217z" glyph-name="n" unicode="n" horiz-adv-x="538"/>
<glyph d="M455 259q0 -132 -57 -199t-156 -67q-189 0 -189 243q0 131 57 197.5t155 66.5q89 0 139.5 -58t50.5 -183zM393 236q0 115 -33.5 166.5t-108.5 51.5q-65 0 -101 -49.5t-36 -145.5q0 -116 33.5 -168t108.5 -52q66 0 101.5 49.5t35.5 147.5z" glyph-name="o" unicode="o" horiz-adv-x="508"/>
<glyph d="M456 265q0 -136 -65.5 -204t-170.5 -68q-44 0 -70 4v-170h-58v666h47l8 -57q76 64 145 64q73 0 118.5 -65.5t45.5 -169.5zM395 251q0 90 -31.5 146.5t-86.5 56.5t-127 -64v-338q38 -14 86 -14q70 0 114.5 54.5t44.5 158.5z" glyph-name="p" unicode="p" horiz-adv-x="512"/>
<glyph d="M420 -173h-58v227q-74 -61 -142 -61q-72 0 -117.5 65t-45.5 170q0 137 65.5 204.5t173.5 67.5q59 0 124 -14v-659zM362 104v337q-37 14 -86 14q-71 0 -114.5 -54.5t-43.5 -157.5q0 -91 31 -147t85 -56q57 0 128 64z" glyph-name="q" unicode="q" horiz-adv-x="512"/>
<glyph d="M314 490l-7 -57q-19 6 -36 6q-44 0 -121 -94v-345h-58v493h49l6 -93q80 99 129 99q20 0 38 -9z" glyph-name="r" unicode="r" horiz-adv-x="342"/>
<glyph d="M349 133q0 -63 -46 -101.5t-124 -38.5q-72 0 -133 32l10 36q72 -22 114 -22q57 0 87.5 23.5t30.5 60.5q0 38 -22 60t-87 48q-74 28 -102.5 58t-28.5 76q0 60 42 97.5t111 37.5q58 0 109 -24l-11 -36q-45 16 -89 16q-48 0 -74.5 -22.5t-26.5 -57.5q0 -34 23.5 -55.5 t91.5 -46.5q67 -25 96 -57.5t29 -83.5z" glyph-name="s" unicode="s" horiz-adv-x="394"/>
<glyph d="M318 21q-58 -28 -105 -28q-60 0 -84.5 30.5t-24.5 103.5v323h-87v43h87q12 75 17 140h41v-140h143v-43h-143v-309q0 -58 13 -80t52 -22q32 0 82 18z" glyph-name="t" unicode="t" horiz-adv-x="351"/>
<glyph d="M445 0h-48l-6 61q-78 -68 -158 -68q-144 0 -144 217q0 32 1.5 133t1.5 150h58q0 -43 -1.5 -137t-1.5 -130q0 -97 26.5 -141t79.5 -44q58 0 134 66v386h58v-493z" glyph-name="u" unicode="u" horiz-adv-x="538"/>
<glyph d="M420 493q-68 -301 -170 -493h-55l-172 493h63l122 -348l23 -77q82 188 126 425h63z" glyph-name="v" unicode="v" horiz-adv-x="449"/>
<glyph d="M676 493q-49 -245 -149 -493h-57l-116 379l-8 34h-1l-5 -30l-102 -383h-63l-153 493h63l100 -331l25 -88h1l17 71l93 348h56l108 -349l20 -69h1q74 216 110 418h60z" glyph-name="w" unicode="w" horiz-adv-x="714"/>
<glyph d="M433 0h-70l-134 226q-81 -139 -128 -226h-68l165 262l-138 231h69l107 -189q55 87 102 189h66l-138 -223z" glyph-name="x" unicode="x" horiz-adv-x="467"/>
<glyph d="M420 493q-156 -669 -363 -669q-22 0 -57 11v37q14 -3 40 -3q56 0 93 36q47 46 47 100q0 46 -36 143l-123 345h64l106 -301q41 -113 33 -160q81 179 133 461h63z" glyph-name="y" unicode="y" horiz-adv-x="451"/>
<glyph d="M351 47l-5 -47h-298v34l220 413h-212l4 46h278v-34l-222 -412h235z" glyph-name="z" unicode="z" horiz-adv-x="400"/>
<glyph d="M301 -173h-32q-65 0 -88.5 28.5t-23.5 91.5v213q0 105 -81 105h-20v46h20q81 0 81 101v208q0 119 116 119h28v-39h-24q-31 0 -48.5 -21t-17.5 -58v-178q0 -147 -96 -154q96 -9 96 -157v-187q0 -43 15 -61t52 -18h23v-39z" glyph-name="braceleft" unicode="{" horiz-adv-x="388"/>
<glyph d="M152 -173h-55v926h55v-926z" glyph-name="bar" unicode="|" horiz-adv-x="251"/>
<glyph d="M330 265h-20q-81 0 -81 -101v-218q0 -119 -116 -119h-27v39h23q31 0 48.5 21t17.5 58v187q0 148 97 155q-97 9 -97 157v177q0 42 -15 60.5t-51 18.5h-23v39h31q65 0 88.5 -28.5t23.5 -91.5v-203q0 -105 81 -105h20v-46z" glyph-name="braceright" unicode="}" horiz-adv-x="388"/>
<glyph d="M458 588q0 -57 -33 -95t-89 -38q-30 0 -53.5 11t-38.5 26t-28 30.5t-29.5 26.5t-37.5 11q-34 0 -52.5 -25t-18.5 -68h-45v9q0 58 34.5 95t87.5 37q30 0 53.5 -10.5t38.5 -26t28 -31t29.5 -26t37.5 -10.5q35 0 53 26.5t18 66.5h45v-9z" glyph-name="asciitilde" unicode="~"/>
<glyph glyph-name="nbspace" unicode=" " horiz-adv-x="240"/>
<glyph d="M193 538q0 -24 -8 -32.5t-33 -8.5q-24 0 -32 8.5t-8 32.5t8.5 31.5t32.5 7.5t32 -7.5t8 -31.5zM186 -104h-70l13 542h45z" glyph-name="exclamdown" unicode="¡" horiz-adv-x="374"/>
<glyph d="M416 176q-61 -59 -129 -67l-7 -110h-38l-5 108q-165 13 -165 224q0 101 45 162.5t120 74.5l5 108h38l6 -108q63 -3 115 -58l-24 -30q-55 45 -106 45q-62 0 -99.5 -50t-37.5 -132q0 -92 35 -140.5t100 -48.5q64 0 122 52z" glyph-name="cent" unicode="¢"/>
<glyph d="M446 0h-401v42q61 61 79.5 122.5t5.5 152.5h-93v45h85q-21 98 -21 133q0 94 47.5 140t124.5 46q75 0 155 -37l-12 -34q-76 25 -133 25q-119 0 -119 -126q0 -23 3 -45t10 -57.5t9 -44.5h194v-45h-187q11 -86 -6 -148.5t-75 -119.5h334v-49z" glyph-name="sterling" unicode="£"/>
<glyph d="M460 52l-43 -32l-67 87q-46 -34 -110 -34q-58 0 -95 29l-62 -82l-43 32l73 75q-34 45 -34 128q0 87 40 136l-79 81l43 32l67 -87q46 34 110 34q58 0 95 -29l63 82l42 -32l-73 -75q34 -45 34 -125q0 -88 -40 -139zM364 255q0 82 -28 118.5t-90 36.5q-53 0 -82 -35 t-29 -103q0 -84 27.5 -121t89.5 -37q54 0 83 35.5t29 105.5z" glyph-name="currency" unicode="¤"/>
<glyph d="M488 675q-129 -249 -208 -364v-24h148v-44h-148v-91h148v-44h-148v-108h-60v108h-148v44h148v91h-148v44h148v24q-101 151 -208 364h70q88 -184 175 -316q76 111 164 316h67z" glyph-name="yen" unicode="¥"/>
<glyph d="M151 368h-51v388h51v-388zM151 -173h-51v369h51v-369z" glyph-name="brokenbar" unicode="¦" horiz-adv-x="251"/>
<glyph d="M455 127q0 -116 -73 -209t-160 -93q-59 0 -107 27l14 37q44 -17 92 -17q91 0 91 94q0 36 -26.5 72t-64 69t-75 70t-64 89t-26.5 112q0 116 71.5 209.5t160.5 93.5q56 0 97 -22l-13 -37q-39 12 -83 12q-91 0 -91 -95q0 -35 26.5 -70.5t64 -69t75.5 -70.5t64.5 -89.5 t26.5 -112.5zM398 113q0 45 -17 86.5t-43 70.5t-56.5 59.5t-57.5 54t-47 53t-23.5 57.5t12.5 67q-54 -72 -54 -166q0 -45 17 -86.5t43 -71t57 -60t58 -54t46.5 -54t23 -59t-13.5 -68.5q55 73 55 171z" glyph-name="section" unicode="§" horiz-adv-x="501"/>
<glyph d="M333 641q0 -21 -6.5 -27.5t-28.5 -6.5t-29 6.5t-7 27.5t7 27.5t29 6.5t28.5 -6t6.5 -28zM144 641q0 -21 -6.5 -27.5t-27.5 -6.5q-23 0 -30 6.5t-7 27.5t7 27.5t30 6.5q21 0 27.5 -6t6.5 -28z" glyph-name="dieresis" unicode="¨" horiz-adv-x="409"/>
<glyph d="M726 336q0 -142 -98.5 -242.5t-241.5 -100.5q-148 0 -243 97.5t-95 247.5q0 142 97.5 242.5t240.5 100.5q151 0 245.5 -98.5t94.5 -246.5zM677 338q0 129 -81.5 213.5t-208.5 84.5q-123 0 -206.5 -87t-83.5 -212q0 -127 82.5 -213.5t207.5 -86.5q123 0 206.5 88t83.5 213 zM506 205q-54 -52 -121 -52q-68 0 -105 46t-37 136q0 89 42 140.5t111 51.5q55 0 100 -46l-23 -26q-37 30 -77 30q-45 0 -71.5 -39.5t-26.5 -102.5q0 -71 25 -109.5t72 -38.5q46 0 89 37z" glyph-name="copyright" unicode="©" horiz-adv-x="772"/>
<glyph d="M345 339h-43l-4 46q-69 -52 -123 -52q-48 0 -76 30t-28 73q0 51 43 85t139 34h40v38q0 80 -95 80q-46 0 -103 -20l-10 35q59 27 135 27q71 0 98 -30.5t27 -84.5v-261zM354 215h-282v41h282v-41zM293 420v97h-40q-73 0 -100.5 -19.5t-27.5 -56.5q0 -28 17 -47t48 -19 q27 0 103 45z" glyph-name="ordfeminine" unicode="ª" horiz-adv-x="459"/>
<glyph d="M406 461l-91 -167l91 -166l-38 -16l-117 182l117 183zM212 125l-37 -17l-120 186l120 186l37 -16l-92 -170z" glyph-name="guillemotleft" unicode="«" horiz-adv-x="501"/>
<glyph d="M440 134h-53v135h-345v45h398v-180z" glyph-name="logicalnot" unicode="¬"/>
<glyph d="M506 484q0 -92 -66 -157t-158 -65q-93 0 -158 65t-65 157t65.5 157t157.5 65q93 0 158.5 -65t65.5 -157zM465 484q0 76 -53.5 130t-129.5 54t-129.5 -54t-53.5 -130t53.5 -129.5t129.5 -53.5t129.5 53.5t53.5 129.5zM361 541q0 -49 -57 -68l67 -109h-52l-57 102h-7v-102 h-42v244h63q43 0 64 -18.5t21 -48.5zM317 536q0 38 -46 38h-16v-75h20q19 0 30.5 10.5t11.5 26.5z" glyph-name="registered" unicode="®" horiz-adv-x="567"/>
<glyph d="M319 612h-306v44h306v-44z" glyph-name="macron" unicode="¯" horiz-adv-x="337"/>
<glyph d="M350 562q0 -125 -123 -125q-65 0 -95 29t-30 93q0 126 128 126q62 0 91 -29.5t29 -93.5zM296 561q0 49 -14.5 66t-54.5 17t-56 -19t-16 -64q0 -47 13.5 -64.5t58.5 -17.5q39 0 54 19.5t15 62.5z" glyph-name="degree" unicode="°" horiz-adv-x="450"/>
<glyph d="M453 311h-178v-186h-50v186h-181v44h181v181h50v-181h178v-44zM453 0h-409v45h409v-45z" glyph-name="plusminus" unicode="±"/>
<glyph d="M382 377h-228v37q93 61 121.5 95t28.5 71q0 32 -12.5 46.5t-43.5 14.5q-39 0 -79 -19l-9 35q50 25 101 25q101 0 101 -95q0 -48 -30 -82t-107 -87h157v-41z" glyph-name="twosuperior" unicode="²"/>
<glyph d="M379 467q0 -45 -31 -70.5t-90 -25.5q-58 0 -118 30l10 30q63 -22 106 -22q33 0 50 14t17 36q0 28 -15 40t-59 12h-45v37h43q31 0 44.5 12t13.5 38q0 23 -11 34t-42 11q-46 0 -78 -13l-10 30q46 22 102 22q94 0 94 -75q0 -49 -47 -70q66 -4 66 -70z" glyph-name="threesuperior" unicode="³"/>
<glyph d="M222 682l-143 -119l-28 23l128 132z" glyph-name="acute" unicode="´" horiz-adv-x="314"/>
<glyph d="M516 -104h-52v735h-100v-735h-52v412q-97 -18 -165 35t-68 145q0 81 55 134t147 53h235v-779z" glyph-name="paragraph" unicode="¶" horiz-adv-x="610"/>
<glyph d="M180 -44q8 -78 -69 -133l-31 22q28 25 38 48.5t9 62.5h53z" glyph-name="cedilla" unicode="¸" horiz-adv-x="309"/>
<glyph d="M369 377h-213v42h85v206l-84 -35l-12 32l105 53h43v-256h76v-42z" glyph-name="onesuperior" unicode="¹"/>
<glyph d="M371 533q0 -99 -45.5 -149.5t-119.5 -50.5q-151 0 -151 187q0 97 45.5 146t115.5 49q69 0 112 -44.5t43 -137.5zM352 215h-282v41h282v-41zM316 515q0 158 -105 158q-48 0 -74.5 -36.5t-26.5 -100.5q0 -85 25.5 -123t78.5 -38q102 0 102 140z" glyph-name="ordmasculine" unicode="º" horiz-adv-x="435"/>
<glyph d="M446 294l-119 -186l-38 17l92 169l-92 170l38 16zM252 294l-118 -183l-37 17l90 166l-90 167l37 16z" glyph-name="guillemotright" unicode="»" horiz-adv-x="501"/>
<glyph d="M601 666l-478 -680l-35 23l478 680zM291 377h-214v42h86v206l-84 -35l-12 32l104 53h44v-256h76v-42zM622 58h-61v-58h-52v58h-157v31q62 111 144 209h65v-198h61v-42zM510 99v157q-66 -80 -106 -157h106z" glyph-name="onequarter" unicode="¼" horiz-adv-x="689"/>
<glyph d="M601 666l-478 -680l-35 23l478 680zM291 377h-214v42h86v206l-84 -35l-12 32l104 53h44v-256h76v-42zM623 0h-227v37q92 61 120.5 95t28.5 71q0 32 -12 46.5t-44 14.5q-38 0 -78 -19l-10 35q52 25 102 25q100 0 100 -95q0 -48 -30 -82t-106 -87h156v-41z" glyph-name="onehalf" unicode="½" horiz-adv-x="689"/>
<glyph d="M601 666l-478 -680l-35 23l478 680zM288 467q0 -45 -31.5 -70.5t-90.5 -25.5q-56 0 -118 30l10 30q63 -22 106 -22q34 0 51 14t17 36q0 28 -15.5 40t-59.5 12h-44v37h42q31 0 44.5 12t13.5 38q0 23 -11 34t-42 11q-46 0 -77 -13l-11 30q46 22 102 22q94 0 94 -75 q0 -50 -47 -70q67 -4 67 -70zM622 58h-61v-58h-52v58h-157v31q62 111 144 209h65v-198h61v-42zM510 99v157q-66 -80 -106 -157h106z" glyph-name="threequarters" unicode="¾" horiz-adv-x="689"/>
<glyph d="M307 538q0 -25 -8.5 -33t-33.5 -8q-23 0 -31 8t-8 33q0 23 8 31t31 8q25 0 33.5 -8t8.5 -31zM410 -80q-82 -31 -153 -31q-91 0 -135.5 42t-44.5 110q0 40 17 74t41 59.5l48 51t41.5 60t18.5 74.5l1 78h44l4 -83q2 -36 -12.5 -71.5t-37 -64t-45.5 -55.5t-39.5 -56 t-16.5 -55q0 -54 33.5 -85t93.5 -31q66 0 129 21z" glyph-name="questiondown" unicode="¿"/>
<glyph d="M497 0h-66q-11 47 -39 153h-274q-16 -60 -36 -153h-62q84 338 200 675h71q128 -369 206 -675zM379 202q-61 207 -130 409q-78 -249 -119 -409h249zM298 762l-19 -31l-172 75l30 46z" glyph-name="Agrave" unicode="À" horiz-adv-x="517"/>
<glyph d="M497 0h-66q-11 47 -39 153h-274q-16 -60 -36 -153h-62q84 338 200 675h71q128 -369 206 -675zM379 202q-61 207 -130 409q-78 -249 -119 -409h249zM398 806l-172 -75l-20 31l162 90z" glyph-name="Aacute" unicode="Á" horiz-adv-x="517"/>
<glyph d="M497 0h-66q-11 47 -39 153h-274q-16 -60 -36 -153h-62q84 338 200 675h71q128 -369 206 -675zM379 202q-61 207 -130 409q-78 -249 -119 -409h249zM396 760l-19 -28l-122 65l-121 -65l-19 28l141 92z" glyph-name="Acircumflex" unicode="Â" horiz-adv-x="517"/>
<glyph d="M497 0h-66q-11 47 -39 153h-274q-16 -60 -36 -153h-62q84 338 200 675h71q128 -369 206 -675zM379 202q-61 207 -130 409q-78 -249 -119 -409h249zM417 814q-28 -43 -49.5 -59t-53.5 -16q-34 0 -71.5 28.5t-54.5 28.5q-16 0 -29 -11t-38 -44l-30 20q27 43 48.5 59.5 t54.5 16.5q26 0 49.5 -14.5t42 -29t33.5 -14.5q17 0 30 11t38 44z" glyph-name="Atilde" unicode="Ã" horiz-adv-x="517"/>
<glyph d="M497 0h-66q-11 47 -39 153h-274q-16 -60 -36 -153h-62q84 338 200 675h71q128 -369 206 -675zM379 202q-61 207 -130 409q-78 -249 -119 -409h249zM191 777q0 -21 -6 -26.5t-28 -5.5q-23 0 -29.5 6t-6.5 26q0 22 6.5 28t29.5 6q22 0 28 -6t6 -28zM388 777q0 -20 -6.5 -26 t-28.5 -6q-23 0 -29.5 6t-6.5 26q0 22 6.5 28t29.5 6q22 0 28.5 -6t6.5 -28z" glyph-name="Adieresis" unicode="Ä" horiz-adv-x="517"/>
<glyph d="M497 0h-66q-11 47 -39 153h-274q-16 -60 -36 -153h-62q84 338 200 675h71q128 -369 206 -675zM379 202q-61 207 -130 409q-78 -249 -119 -409h249zM350 778q0 -40 -26 -63t-70 -23q-91 0 -91 81q0 38 27 61.5t70 23.5q45 0 67.5 -21.5t22.5 -58.5zM302 774q0 25 -10.5 36 t-35.5 11q-45 0 -45 -47q0 -24 10.5 -34.5t34.5 -10.5q46 0 46 45z" glyph-name="Aring" unicode="Å" horiz-adv-x="517"/>
<glyph d="M653 0h-320v153h-216q-34 -78 -61 -153h-65q148 357 313 675h345v-50h-255v-254h211v-49h-211v-272h259v-50zM333 202v423h-1q-108 -216 -195 -423h196z" glyph-name="AE" unicode="Æ" horiz-adv-x="713"/>
<glyph d="M481 92q-78 -99 -193 -99q-111 0 -171.5 85t-60.5 249q0 165 66.5 260t178.5 95q114 0 168 -111l-33 -24q-49 85 -133 85q-61 0 -103.5 -42.5t-60.5 -106t-18 -141.5q0 -298 181 -298q82 0 150 78zM324 -44q8 -78 -69 -133l-31 22q28 25 38 48.5t9 62.5h53z" glyph-name="Ccedilla" unicode="Ç" horiz-adv-x="520"/>
<glyph d="M411 0h-312v675h308v-50h-247v-254h203v-49h-203v-272h251v-50zM299 762l-19 -31l-172 75l30 46z" glyph-name="Egrave" unicode="È" horiz-adv-x="470"/>
<glyph d="M411 0h-312v675h308v-50h-247v-254h203v-49h-203v-272h251v-50zM382 806l-172 -75l-20 31l162 90z" glyph-name="Eacute" unicode="É" horiz-adv-x="470"/>
<glyph d="M411 0h-312v675h308v-50h-247v-254h203v-49h-203v-272h251v-50zM397 760l-19 -28l-122 65l-121 -65l-19 28l141 92z" glyph-name="Ecircumflex" unicode="Ê" horiz-adv-x="470"/>
<glyph d="M411 0h-312v675h308v-50h-247v-254h203v-49h-203v-272h251v-50zM190 777q0 -21 -6 -26.5t-28 -5.5q-23 0 -29.5 6t-6.5 26q0 22 6.5 28t29.5 6q22 0 28 -6t6 -28zM387 777q0 -20 -6.5 -26t-28.5 -6q-23 0 -29.5 6t-6.5 26q0 22 6.5 28t29.5 6q22 0 28.5 -6t6.5 -28z" glyph-name="Edieresis" unicode="Ë" horiz-adv-x="470"/>
<glyph d="M160 0h-61v675h61v-675zM182 762l-19 -31l-172 75l30 46z" glyph-name="Igrave" unicode="Ì" horiz-adv-x="259"/>
<glyph d="M160 0h-61v675h61v-675zM269 806l-172 -75l-20 31l162 90z" glyph-name="Iacute" unicode="Í" horiz-adv-x="259"/>
<glyph d="M160 0h-61v675h61v-675zM271 760l-19 -28l-122 65l-121 -65l-19 28l141 92z" glyph-name="Icircumflex" unicode="Î" horiz-adv-x="259"/>
<glyph d="M160 0h-61v675h61v-675zM66 777q0 -21 -6 -26.5t-28 -5.5q-23 0 -29.5 6t-6.5 26q0 22 6.5 28t29.5 6q22 0 28 -6t6 -28zM263 777q0 -20 -6.5 -26t-28.5 -6q-23 0 -29.5 6t-6.5 26q0 22 6.5 28t29.5 6q22 0 28.5 -6t6.5 -28z" glyph-name="Idieresis" unicode="Ï" horiz-adv-x="259"/>
<glyph d="M523 353q0 -168 -76 -261t-228 -93q-21 0 -59 0.5t-51 0.5v323h-71v47h71v305q22 0 66.5 0.5t71.5 0.5q74 0 129 -26.5t86 -73t46 -102t15 -121.5zM458 343q0 284 -225 284q-42 0 -63 -1v-256h132v-47h-132v-273q46 -2 71 -2q217 0 217 295z" glyph-name="Eth" unicode="Ð" horiz-adv-x="579"/>
<glyph d="M553 0h-54l-346 592v-592h-54v675h80l319 -542v542h55v-675zM488 814q-28 -43 -49.5 -59t-53.5 -16q-34 0 -71.5 28.5t-54.5 28.5q-16 0 -29 -11t-38 -44l-30 20q27 43 48.5 59.5t54.5 16.5t71 -29t54 -29q17 0 30 11t38 44z" glyph-name="Ntilde" unicode="Ñ" horiz-adv-x="653"/>
<glyph d="M571 349q0 -180 -74 -268t-193 -88q-248 0 -248 334q0 179 74 267t193 88q248 0 248 -333zM506 334q0 300 -195 300q-90 0 -140 -71.5t-50 -219.5q0 -302 195 -302q89 0 139.5 72t50.5 221zM371 762l-19 -31l-172 75l30 46z" glyph-name="Ograve" unicode="Ò" horiz-adv-x="627"/>
<glyph d="M571 349q0 -180 -74 -268t-193 -88q-248 0 -248 334q0 179 74 267t193 88q248 0 248 -333zM506 334q0 300 -195 300q-90 0 -140 -71.5t-50 -219.5q0 -302 195 -302q89 0 139.5 72t50.5 221zM460 806l-172 -75l-20 31l162 90z" glyph-name="Oacute" unicode="Ó" horiz-adv-x="627"/>
<glyph d="M571 349q0 -180 -74 -268t-193 -88q-248 0 -248 334q0 179 74 267t193 88q248 0 248 -333zM506 334q0 300 -195 300q-90 0 -140 -71.5t-50 -219.5q0 -302 195 -302q89 0 139.5 72t50.5 221zM458 760l-19 -28l-122 65l-121 -65l-19 28l141 92z" glyph-name="Ocircumflex" unicode="Ô" horiz-adv-x="627"/>
<glyph d="M571 349q0 -180 -74 -268t-193 -88q-248 0 -248 334q0 179 74 267t193 88q248 0 248 -333zM506 334q0 300 -195 300q-90 0 -140 -71.5t-50 -219.5q0 -302 195 -302q89 0 139.5 72t50.5 221zM480 814q-28 -43 -49.5 -59t-53.5 -16q-34 0 -71.5 28.5t-54.5 28.5 q-16 0 -29 -11t-38 -44l-30 20q27 43 48.5 59.5t54.5 16.5t71 -29t54 -29q17 0 30 11t38 44z" glyph-name="Otilde" unicode="Õ" horiz-adv-x="627"/>
<glyph d="M571 349q0 -180 -74 -268t-193 -88q-248 0 -248 334q0 179 74 267t193 88q248 0 248 -333zM506 334q0 300 -195 300q-90 0 -140 -71.5t-50 -219.5q0 -302 195 -302q89 0 139.5 72t50.5 221zM253 777q0 -21 -6 -26.5t-28 -5.5q-23 0 -29.5 6t-6.5 26q0 22 6.5 28t29.5 6 q22 0 28 -6t6 -28zM450 777q0 -20 -6.5 -26t-28.5 -6q-23 0 -29.5 6t-6.5 26q0 22 6.5 28t29.5 6q22 0 28.5 -6t6.5 -28z" glyph-name="Odieresis" unicode="Ö" horiz-adv-x="627"/>
<glyph d="M423 157l-34 -34l-139 139l-139 -139l-33 33l139 139l-138 138l34 34l138 -138l138 138l33 -33l-138 -138z" glyph-name="multiply" unicode="×"/>
<glyph d="M571 349q0 -180 -74 -268t-193 -88q-87 0 -144 43l-63 -106l-38 21l68 115q-71 82 -71 261t74 267t193 88q85 0 143 -43l64 107l38 -22l-68 -115q71 -84 71 -260zM436 589q-46 46 -125 46q-91 0 -141.5 -71.5t-50.5 -220.5q0 -141 46 -214zM508 334q0 141 -46 212 l-271 -459q44 -47 125 -47q91 0 141.5 72t50.5 222z" glyph-name="Oslash" unicode="Ø" horiz-adv-x="627"/>
<glyph d="M555 250q0 -130 -63 -193.5t-177 -63.5q-111 0 -164.5 58.5t-53.5 186.5v437h61v-427q0 -113 40.5 -160t130.5 -47q81 0 123 46.5t42 156.5v431h61v-425zM355 762l-19 -31l-172 75l30 46z" glyph-name="Ugrave" unicode="Ù" horiz-adv-x="652"/>
<glyph d="M555 250q0 -130 -63 -193.5t-177 -63.5q-111 0 -164.5 58.5t-53.5 186.5v437h61v-427q0 -113 40.5 -160t130.5 -47q81 0 123 46.5t42 156.5v431h61v-425zM496 806l-172 -75l-20 31l162 90z" glyph-name="Uacute" unicode="Ú" horiz-adv-x="652"/>
<glyph d="M555 250q0 -130 -63 -193.5t-177 -63.5q-111 0 -164.5 58.5t-53.5 186.5v437h61v-427q0 -113 40.5 -160t130.5 -47q81 0 123 46.5t42 156.5v431h61v-425zM472 760l-19 -28l-122 65l-121 -65l-19 28l141 92z" glyph-name="Ucircumflex" unicode="Û" horiz-adv-x="652"/>
<glyph d="M555 250q0 -130 -63 -193.5t-177 -63.5q-111 0 -164.5 58.5t-53.5 186.5v437h61v-427q0 -113 40.5 -160t130.5 -47q81 0 123 46.5t42 156.5v431h61v-425zM269 777q0 -21 -6 -26.5t-28 -5.5q-23 0 -29.5 6t-6.5 26q0 22 6.5 28t29.5 6q22 0 28 -6t6 -28zM466 777 q0 -20 -6.5 -26t-28.5 -6q-23 0 -29.5 6t-6.5 26q0 22 6.5 28t29.5 6q22 0 28.5 -6t6.5 -28z" glyph-name="Udieresis" unicode="Ü" horiz-adv-x="652"/>
<glyph d="M480 675q-130 -260 -209 -376v-299h-61v299q-106 160 -209 376h70q82 -176 176 -323q76 114 165 323h68zM397 806l-172 -75l-20 31l162 90z" glyph-name="Yacute" unicode="Ý" horiz-adv-x="480"/>
<glyph d="M473 371q0 -97 -66 -158.5t-208 -61.5h-39v-151h-61v675h62v-107q17 1 71 1q241 0 241 -198zM408 362q0 159 -188 159h-60v-322h62q94 0 140 43.5t46 119.5z" glyph-name="Thorn" unicode="Þ" horiz-adv-x="504"/>
<glyph d="M495 133q0 -61 -38 -100t-105 -39q-64 0 -110 23l10 35q42 -14 89 -14q43 0 68.5 24.5t25.5 60.5q0 33 -19 57.5t-45.5 40.5t-53.5 33t-46 45.5t-19 67.5q0 32 12.5 55t30 37.5t35 28.5t30 38t12.5 58q0 40 -27 63t-72 23q-69 0 -95.5 -39t-26.5 -119v-512h-59v507 q0 208 190 208q68 0 107.5 -33.5t39.5 -92.5q0 -41 -12.5 -69t-30 -42.5t-34.5 -26.5t-29.5 -30t-12.5 -44q0 -25 13.5 -45t34.5 -33t44.5 -29t44.5 -32t34.5 -43t13.5 -62z" glyph-name="germandbls" unicode="ß" horiz-adv-x="541"/>
<glyph d="M394 0h-46l-5 59q-80 -66 -158 -66q-67 0 -103 34t-36 96q0 76 60.5 119.5t186.5 43.5h44v58q0 57 -28.5 84t-92.5 27q-58 0 -134 -29l-11 39q80 35 165 35q158 0 158 -146v-354zM337 101v142h-51q-104 0 -142 -28t-38 -80q0 -45 24 -71t70 -26q65 0 137 63zM279 586 l-27 -23l-142 119l43 35z" glyph-name="agrave" unicode="à" horiz-adv-x="486"/>
<glyph d="M394 0h-46l-5 59q-80 -66 -158 -66q-67 0 -103 34t-36 96q0 76 60.5 119.5t186.5 43.5h44v58q0 57 -28.5 84t-92.5 27q-58 0 -134 -29l-11 39q80 35 165 35q158 0 158 -146v-354zM337 101v142h-51q-104 0 -142 -28t-38 -80q0 -45 24 -71t70 -26q65 0 137 63zM370 682 l-143 -119l-28 23l128 132z" glyph-name="aacute" unicode="á" horiz-adv-x="486"/>
<glyph d="M394 0h-46l-5 59q-80 -66 -158 -66q-67 0 -103 34t-36 96q0 76 60.5 119.5t186.5 43.5h44v58q0 57 -28.5 84t-92.5 27q-58 0 -134 -29l-11 39q80 35 165 35q158 0 158 -146v-354zM337 101v142h-51q-104 0 -142 -28t-38 -80q0 -45 24 -71t70 -26q65 0 137 63zM368 591 l-23 -25l-111 88l-109 -88l-23 25l134 128z" glyph-name="acircumflex" unicode="â" horiz-adv-x="486"/>
<glyph d="M394 0h-46l-5 59q-80 -66 -158 -66q-67 0 -103 34t-36 96q0 76 60.5 119.5t186.5 43.5h44v58q0 57 -28.5 84t-92.5 27q-58 0 -134 -29l-11 39q80 35 165 35q158 0 158 -146v-354zM337 101v142h-51q-104 0 -142 -28t-38 -80q0 -45 24 -71t70 -26q65 0 137 63zM392 663 q-27 -43 -48.5 -59.5t-54.5 -16.5q-34 0 -71.5 29t-53.5 29t-29 -11t-39 -44l-28 20q26 43 47.5 59.5t54.5 16.5q34 0 72 -29t54 -29t29 11t38 44z" glyph-name="atilde" unicode="ã" horiz-adv-x="486"/>
<glyph d="M394 0h-46l-5 59q-80 -66 -158 -66q-67 0 -103 34t-36 96q0 76 60.5 119.5t186.5 43.5h44v58q0 57 -28.5 84t-92.5 27q-58 0 -134 -29l-11 39q80 35 165 35q158 0 158 -146v-354zM337 101v142h-51q-104 0 -142 -28t-38 -80q0 -45 24 -71t70 -26q65 0 137 63zM365 641 q0 -21 -6.5 -27.5t-28.5 -6.5t-29 6.5t-7 27.5t7 27.5t29 6.5t28.5 -6t6.5 -28zM176 641q0 -21 -6.5 -27.5t-27.5 -6.5q-23 0 -30 6.5t-7 27.5t7 27.5t30 6.5q21 0 27.5 -6t6.5 -28z" glyph-name="adieresis" unicode="ä" horiz-adv-x="486"/>
<glyph d="M394 0h-46l-5 59q-80 -66 -158 -66q-67 0 -103 34t-36 96q0 76 60.5 119.5t186.5 43.5h44v58q0 57 -28.5 84t-92.5 27q-58 0 -134 -29l-11 39q80 35 165 35q158 0 158 -146v-354zM337 101v142h-51q-104 0 -142 -28t-38 -80q0 -45 24 -71t70 -26q65 0 137 63zM331 636 q0 -40 -26 -63t-70 -23q-91 0 -91 81q0 38 27 61.5t70 23.5q45 0 67.5 -21.5t22.5 -58.5zM283 632q0 25 -10.5 36t-35.5 11q-45 0 -45 -47q0 -24 10.5 -34.5t34.5 -10.5q46 0 46 45z" glyph-name="aring" unicode="å" horiz-adv-x="486"/>
<glyph d="M694 244h-300v-12q0 -101 37 -147t110 -46q69 0 139 32l13 -37q-82 -41 -168 -41q-128 0 -167 105q-67 -105 -173 -105q-67 0 -103 34t-36 96q0 76 60.5 119t186.5 43h43v59q0 57 -28.5 84t-91.5 27q-58 0 -134 -29l-11 39q80 35 165 35q118 0 143 -87q48 87 148 87 q181 0 167 -256zM636 285v4q0 79 -28.5 123t-86.5 44t-90.5 -49t-36.5 -122h242zM336 138v106h-51q-103 0 -141 -28.5t-38 -79.5q0 -46 24.5 -72t70.5 -26q81 0 135 100z" glyph-name="ae" unicode="æ" horiz-adv-x="766"/>
<glyph d="M392 66q-68 -73 -157 -73q-88 0 -135 62.5t-47 183.5q0 122 54.5 191.5t142.5 69.5q74 0 128 -60l-24 -31q-49 45 -105 45q-64 0 -99 -54t-35 -149q0 -211 132 -211q64 0 121 56zM255 -44q8 -78 -69 -133l-31 22q28 25 38 48.5t9 62.5h53z" glyph-name="ccedilla" unicode="ç" horiz-adv-x="429"/>
<glyph d="M414 243h-300v-11q0 -101 37 -147t110 -46q69 0 139 32l13 -37q-82 -41 -168 -41q-192 0 -192 239q0 127 51 197.5t143 70.5q181 0 167 -257zM356 286v3q0 167 -115 167q-58 0 -90.5 -48.5t-36.5 -121.5h242zM287 586l-27 -23l-142 119l43 35z" glyph-name="egrave" unicode="è" horiz-adv-x="482"/>
<glyph d="M414 243h-300v-11q0 -101 37 -147t110 -46q69 0 139 32l13 -37q-82 -41 -168 -41q-192 0 -192 239q0 127 51 197.5t143 70.5q181 0 167 -257zM356 286v3q0 167 -115 167q-58 0 -90.5 -48.5t-36.5 -121.5h242zM371 682l-143 -119l-28 23l128 132z" glyph-name="eacute" unicode="é" horiz-adv-x="482"/>
<glyph d="M414 243h-300v-11q0 -101 37 -147t110 -46q69 0 139 32l13 -37q-82 -41 -168 -41q-192 0 -192 239q0 127 51 197.5t143 70.5q181 0 167 -257zM356 286v3q0 167 -115 167q-58 0 -90.5 -48.5t-36.5 -121.5h242zM377 591l-23 -25l-111 88l-109 -88l-23 25l134 128z" glyph-name="ecircumflex" unicode="ê" horiz-adv-x="482"/>
<glyph d="M414 243h-300v-11q0 -101 37 -147t110 -46q69 0 139 32l13 -37q-82 -41 -168 -41q-192 0 -192 239q0 127 51 197.5t143 70.5q181 0 167 -257zM356 286v3q0 167 -115 167q-58 0 -90.5 -48.5t-36.5 -121.5h242zM374 641q0 -21 -6.5 -27.5t-28.5 -6.5t-29 6.5t-7 27.5 t7 27.5t29 6.5t28.5 -6t6.5 -28zM185 641q0 -21 -6.5 -27.5t-27.5 -6.5q-23 0 -30 6.5t-7 27.5t7 27.5t30 6.5q21 0 27.5 -6t6.5 -28z" glyph-name="edieresis" unicode="ë" horiz-adv-x="482"/>
<glyph d="M150 0h-58v493h58v-493zM174 586l-27 -23l-142 119l43 35z" glyph-name="igrave" unicode="ì" horiz-adv-x="243"/>
<glyph d="M150 0h-58v493h58v-493zM243 682l-143 -119l-28 23l128 132z" glyph-name="iacute" unicode="í" horiz-adv-x="243"/>
<glyph d="M150 0h-58v493h58v-493zM255 591l-23 -25l-111 88l-109 -88l-23 25l134 128z" glyph-name="icircumflex" unicode="î" horiz-adv-x="243"/>
<glyph d="M150 0h-58v493h58v-493zM251 641q0 -21 -6.5 -27.5t-28.5 -6.5t-29 6.5t-7 27.5t7 27.5t29 6.5t28.5 -6t6.5 -28zM62 641q0 -21 -6.5 -27.5t-27.5 -6.5q-23 0 -30 6.5t-7 27.5t7 27.5t30 6.5q21 0 27.5 -6t6.5 -28z" glyph-name="idieresis" unicode="ï" horiz-adv-x="243"/>
<glyph d="M445 297q0 -161 -57 -232.5t-145 -71.5q-97 0 -144 64.5t-47 177.5q0 127 59 193.5t159 66.5q54 0 77 -9q-25 55 -69 107l-104 -60l-27 34l103 58q-33 36 -91 84h80q39 -33 63 -60l96 55l26 -34l-93 -53q114 -139 114 -320zM383 283q0 86 -19 151q-40 16 -103 16 q-66 0 -106 -50t-40 -150q0 -210 137 -210q59 0 95 52.5t36 190.5z" glyph-name="eth" unicode="ð" horiz-adv-x="514"/>
<glyph d="M448 283q0 -31 -1.5 -132t-1.5 -151h-57q0 44 1 137.5t1 129.5q0 186 -105 186q-57 0 -135 -66v-387h-58v493h49l6 -61q76 68 158 68q143 0 143 -217zM437 663q-27 -43 -48.5 -59.5t-54.5 -16.5q-34 0 -71.5 29t-53.5 29t-29 -11t-39 -44l-28 20q26 43 47.5 59.5 t54.5 16.5t72 -29t54 -29q16 0 29 11t38 44z" glyph-name="ntilde" unicode="ñ" horiz-adv-x="538"/>
<glyph d="M455 259q0 -132 -57 -199t-156 -67q-189 0 -189 243q0 131 57 197.5t155 66.5q89 0 139.5 -58t50.5 -183zM393 236q0 115 -33.5 166.5t-108.5 51.5q-65 0 -101 -49.5t-36 -145.5q0 -116 33.5 -168t108.5 -52q66 0 101.5 49.5t35.5 147.5zM295 586l-27 -23l-142 119l43 35 z" glyph-name="ograve" unicode="ò" horiz-adv-x="508"/>
<glyph d="M455 259q0 -132 -57 -199t-156 -67q-189 0 -189 243q0 131 57 197.5t155 66.5q89 0 139.5 -58t50.5 -183zM393 236q0 115 -33.5 166.5t-108.5 51.5q-65 0 -101 -49.5t-36 -145.5q0 -116 33.5 -168t108.5 -52q66 0 101.5 49.5t35.5 147.5zM380 682l-143 -119l-28 23 l128 132z" glyph-name="oacute" unicode="ó" horiz-adv-x="508"/>
<glyph d="M455 259q0 -132 -57 -199t-156 -67q-189 0 -189 243q0 131 57 197.5t155 66.5q89 0 139.5 -58t50.5 -183zM393 236q0 115 -33.5 166.5t-108.5 51.5q-65 0 -101 -49.5t-36 -145.5q0 -116 33.5 -168t108.5 -52q66 0 101.5 49.5t35.5 147.5zM392 591l-23 -25l-111 88 l-109 -88l-23 25l134 128z" glyph-name="ocircumflex" unicode="ô" horiz-adv-x="508"/>
<glyph d="M455 259q0 -132 -57 -199t-156 -67q-189 0 -189 243q0 131 57 197.5t155 66.5q89 0 139.5 -58t50.5 -183zM393 236q0 115 -33.5 166.5t-108.5 51.5q-65 0 -101 -49.5t-36 -145.5q0 -116 33.5 -168t108.5 -52q66 0 101.5 49.5t35.5 147.5zM419 663q-27 -43 -48.5 -59.5 t-54.5 -16.5q-34 0 -71.5 29t-53.5 29t-29 -11t-39 -44l-28 20q26 43 47.5 59.5t54.5 16.5t72 -29t54 -29q16 0 29 11t38 44z" glyph-name="otilde" unicode="õ" horiz-adv-x="508"/>
<glyph d="M455 259q0 -132 -57 -199t-156 -67q-189 0 -189 243q0 131 57 197.5t155 66.5q89 0 139.5 -58t50.5 -183zM393 236q0 115 -33.5 166.5t-108.5 51.5q-65 0 -101 -49.5t-36 -145.5q0 -116 33.5 -168t108.5 -52q66 0 101.5 49.5t35.5 147.5zM385 641q0 -21 -6.5 -27.5 t-28.5 -6.5t-29 6.5t-7 27.5t7 27.5t29 6.5t28.5 -6t6.5 -28zM196 641q0 -21 -6.5 -27.5t-27.5 -6.5q-23 0 -30 6.5t-7 27.5t7 27.5t30 6.5q21 0 27.5 -6t6.5 -28z" glyph-name="odieresis" unicode="ö" horiz-adv-x="508"/>
<glyph d="M290 482q0 -22 -8.5 -30t-31.5 -8q-24 0 -32.5 7.5t-8.5 31.5q0 22 8.5 30t31.5 8q24 0 32.5 -8t8.5 -31zM453 270h-407v44h407v-44zM290 102q0 -23 -8.5 -31.5t-32.5 -8.5q-23 0 -31.5 8t-8.5 30q0 24 8.5 32t32.5 8q23 0 31.5 -8t8.5 -30z" glyph-name="divide" unicode="÷"/>
<glyph d="M455 259q0 -132 -57 -199t-156 -67q-57 0 -95 24l-50 -87l-37 21l53 90q-60 60 -60 195q0 131 57 197.5t155 66.5q59 0 97 -24l50 88l36 -22l-52 -91q59 -59 59 -192zM335 432q-33 24 -84 24q-66 0 -102.5 -50t-36.5 -147q0 -111 35 -161zM395 236q0 110 -34 158 l-188 -333q31 -24 83 -24q67 0 103 50.5t36 148.5z" glyph-name="oslash" unicode="ø" horiz-adv-x="508"/>
<glyph d="M445 0h-48l-6 61q-78 -68 -158 -68q-144 0 -144 217q0 32 1.5 133t1.5 150h58q0 -43 -1.5 -137t-1.5 -130q0 -97 26.5 -141t79.5 -44q58 0 134 66v386h58v-493zM309 586l-27 -23l-142 119l43 35z" glyph-name="ugrave" unicode="ù" horiz-adv-x="538"/>
<glyph d="M445 0h-48l-6 61q-78 -68 -158 -68q-144 0 -144 217q0 32 1.5 133t1.5 150h58q0 -43 -1.5 -137t-1.5 -130q0 -97 26.5 -141t79.5 -44q58 0 134 66v386h58v-493zM401 682l-143 -119l-28 23l128 132z" glyph-name="uacute" unicode="ú" horiz-adv-x="538"/>
<glyph d="M445 0h-48l-6 61q-78 -68 -158 -68q-144 0 -144 217q0 32 1.5 133t1.5 150h58q0 -43 -1.5 -137t-1.5 -130q0 -97 26.5 -141t79.5 -44q58 0 134 66v386h58v-493zM405 591l-23 -25l-111 88l-109 -88l-23 25l134 128z" glyph-name="ucircumflex" unicode="û" horiz-adv-x="538"/>
<glyph d="M445 0h-48l-6 61q-78 -68 -158 -68q-144 0 -144 217q0 32 1.5 133t1.5 150h58q0 -43 -1.5 -137t-1.5 -130q0 -97 26.5 -141t79.5 -44q58 0 134 66v386h58v-493zM400 641q0 -21 -6.5 -27.5t-28.5 -6.5t-29 6.5t-7 27.5t7 27.5t29 6.5t28.5 -6t6.5 -28zM211 641 q0 -21 -6.5 -27.5t-27.5 -6.5q-23 0 -30 6.5t-7 27.5t7 27.5t30 6.5q21 0 27.5 -6t6.5 -28z" glyph-name="udieresis" unicode="ü" horiz-adv-x="538"/>
<glyph d="M420 493q-156 -669 -363 -669q-22 0 -57 11v37q14 -3 40 -3q56 0 93 36q47 46 47 100q0 46 -36 143l-123 345h64l106 -301q41 -113 33 -160q81 179 133 461h63zM336 682l-143 -119l-28 23l128 132z" glyph-name="yacute" unicode="ý" horiz-adv-x="451"/>
<glyph d="M456 265q0 -137 -65.5 -204.5t-169.5 -67.5q-45 0 -71 5v-171h-58v882h58v-270q74 61 142 61q72 0 118 -66t46 -169zM395 250q0 91 -31.5 147.5t-86.5 56.5q-56 0 -127 -65v-338q34 -13 85 -13q71 0 115.5 54.5t44.5 157.5z" glyph-name="thorn" unicode="þ" horiz-adv-x="512"/>
</font>
</defs>
</svg>
