<?xml version="1.0" encoding="UTF-8" standalone="no"?>
<!DOCTYPE svg  PUBLIC '-//W3C//DTD SVG 1.1//EN'  'http://www.w3.org/Graphics/SVG/1.1/DTD/svg11.dtd'>
<svg version="1.1" xmlns="http://www.w3.org/2000/svg">
<defs>
<font id="Sun-SemiBold" horiz-adv-x="500">
<font-face underline-thickness="0" font-family="Sun SemiBold" unicode-range="U+0020-00FE" units-per-em="1000" font-weight="600" descent="-200" bbox="-23 -181 911 876" ascent="800" panose-1="0 0 0 0 0 0 0 0 0 0" cap-height="675" x-height="498" underline-position="0"/>
<missing-glyph/>
<glyph horiz-adv-x="240" glyph-name="space" unicode=" "/>
<glyph horiz-adv-x="374" glyph-name="exclam" unicode="!" d="M280 675l-19 -513h-89l-18 513h126zM282 52q0 -34 -13.5 -46.5t-52.5 -12.5q-38 0 -51.5 12t-13.5 45q0 34 13.5 46.5t52.5 12.5q38 0 51.5 -12t13.5 -45z"/>
<glyph horiz-adv-x="451" glyph-name="quotedbl" unicode='&quot;' d="M370 675l-11 -258h-78l-12 258h101zM178 675l-11 -258h-78l-12 258h101z"/>
<glyph horiz-adv-x="508" glyph-name="numbersign" unicode="#" d="M479 205h-105l-24 -205h-77l23 205h-119l-24 -205h-77l22 205h-69v66h78l19 162h-97v65h104l21 177h77l-21 -177h120l21 177h77l-21 -177h72v-65h-79l-19 -162h98v-66zM322 433h-119l-19 -162h120z"/>
<glyph glyph-name="dollar" unicode="$" d="M455 182q0 -69 -46 -117t-127 -61l-8 -110h-61l-8 108q-86 5 -158 55l30 56q67 -36 141 -36q60 0 92.5 26.5t32.5 70.5q0 36 -30 62.5t-72.5 45t-84.5 40t-72 60.5t-30 94q0 63 40.5 107t110.5 57l8 106h61l8 -103q70 -5 135 -47l-29 -54q-60 29 -125 29 q-49 0 -75.5 -24.5t-26.5 -61.5q0 -38 30.5 -64.5t73.5 -45t86 -39.5t73.5 -60t30.5 -94z"/>
<glyph horiz-adv-x="699" glyph-name="percent" unicode="%" d="M340 526q0 -159 -147 -159q-78 0 -108.5 36.5t-30.5 121.5q0 160 147 160q76 0 107.5 -38t31.5 -121zM621 659l-488 -676l-55 33l488 676zM645 149q0 -159 -147 -159q-78 0 -108.5 36.5t-30.5 121.5q0 160 148 160q75 0 106.5 -38t31.5 -121zM259 523q0 53 -14.5 78 t-47.5 25q-63 0 -63 -99q0 -54 15.5 -77.5t47.5 -23.5q62 0 62 97zM565 146q0 53 -15 78t-48 25q-62 0 -62 -99q0 -54 15 -77.5t47 -23.5q63 0 63 97z"/>
<glyph horiz-adv-x="690" glyph-name="ampersand" unicode="&amp;" d="M650 3q-26 -12 -66 -12q-34 0 -130 74q-90 -74 -204 -74q-102 0 -152 48t-50 129q0 63 31.5 108.5t90.5 85.5q-74 108 -74 168q0 68 48.5 111t137.5 43q77 0 120.5 -34.5t43.5 -92.5q0 -62 -36.5 -104t-115.5 -93q67 -83 159 -170q54 86 54 189h98q0 -137 -85 -250 q74 -62 98 -62h32v-64zM350 548q0 31 -19 50.5t-58 19.5q-38 0 -58.5 -21t-20.5 -56q0 -42 56 -124q57 41 78.5 69t21.5 62zM393 116q-104 94 -176 186q-69 -58 -69 -122q0 -57 31.5 -86.5t88.5 -29.5q65 0 125 52z"/>
<glyph horiz-adv-x="320" glyph-name="quotesingle" unicode="&apos;" d="M213 675l-12 -258h-74l-12 258h98z"/>
<glyph horiz-adv-x="310" glyph-name="parenleft" unicode="(" d="M268 -152l-69 -24q-132 201 -132 444q0 249 132 455l69 -25q-105 -196 -105 -422t105 -428z"/>
<glyph horiz-adv-x="310" glyph-name="parenright" unicode=")" d="M243 279q0 -250 -132 -454l-69 23q105 199 105 423q0 228 -105 427l69 25q132 -198 132 -444z"/>
<glyph glyph-name="asterisk" unicode="*" d="M447 465l-44 -79l-115 83l10 -139h-97l12 138l-114 -82l-44 80l126 58l-126 59l44 79l114 -83l-12 139h98l-10 -138l114 82l44 -79l-126 -58z"/>
<glyph glyph-name="plus" unicode="+" d="M459 260h-165v-184h-88v184h-167v72h167v180h88v-180h165v-72z"/>
<glyph horiz-adv-x="306" glyph-name="comma" unicode="," d="M218 51q0 -74 -27 -117t-101 -89l-41 42q41 29 56 49.5t15 43.5q0 12 -14 28t-14 42q0 40 12.5 53.5t53.5 13.5q37 0 48.5 -14.5t11.5 -51.5z"/>
<glyph horiz-adv-x="235" glyph-name="hyphen" unicode="-" d="M234 257h-205v78h205v-78z"/>
<glyph horiz-adv-x="290" glyph-name="period" unicode="." d="M217 54q0 -37 -12.5 -50t-50.5 -13t-51 12.5t-13 49.5q0 39 13 51.5t52 12.5q37 0 49.5 -12.5t12.5 -50.5z"/>
<glyph glyph-name="slash" unicode="/" d="M489 709l-399 -813h-90l399 813h90z"/>
<glyph glyph-name="zero" unicode="0" d="M464 286q0 -155 -54.5 -225.5t-163.5 -70.5q-115 0 -163 62.5t-48 226.5q0 162 55.5 231t164.5 69q73 0 117 -25t68 -90t24 -178zM358 280q0 128 -25.5 174.5t-83.5 46.5t-83.5 -45.5t-25.5 -169.5t24.5 -170t88.5 -46q58 0 81.5 47t23.5 163z"/>
<glyph glyph-name="one" unicode="1" d="M452 0h-385v84h145v385l-129 -43l-24 62l179 81h85v-485h129v-84z"/>
<glyph glyph-name="two" unicode="2" d="M451 0h-401v74q170 141 219.5 201t49.5 123q0 47 -29.5 71t-78.5 24q-55 0 -139 -26l-15 70q110 41 192 41q87 0 137.5 -43.5t50.5 -125.5q0 -77 -52 -142.5t-196 -178.5h262v-88z"/>
<glyph glyph-name="three" unicode="3" d="M444 101q0 -213 -228 -213q-82 0 -189 42l9 62q98 -21 157 -21q73 0 102.5 29t29.5 92q0 59 -29.5 89.5t-97.5 30.5h-72v80h68q58 0 85.5 27t27.5 84q0 47 -24 69.5t-81 22.5q-68 0 -138 -25l-15 70q94 38 189 38q93 0 138.5 -44.5t45.5 -120.5q0 -61 -27.5 -100 t-73.5 -53q58 -6 90.5 -52t32.5 -107z"/>
<glyph glyph-name="four" unicode="4" d="M473 47h-74v-151h-104v151h-271v82q107 234 228 440h147v-431h74v-91zM295 138v343q-120 -211 -181 -343h181z"/>
<glyph glyph-name="five" unicode="5" d="M447 106q0 -218 -229 -218q-80 0 -189 41l8 59q114 -19 165 -19q71 0 101.5 28.5t30.5 97.5q0 135 -133 135q-62 0 -142 -16l22 355h319v-89h-235l-12 -174q27 7 84 7q103 0 156.5 -54.5t53.5 -152.5z"/>
<glyph glyph-name="six" unicode="6" d="M460 218q0 -104 -55 -165.5t-147 -61.5q-53 0 -89.5 14t-64 50t-40.5 101t-13 164q0 364 234 364q72 0 156 -36l-10 -61q-79 18 -134 18q-138 0 -144 -247q79 45 142 45q82 0 123.5 -48t41.5 -137zM357 204q0 61 -22.5 89.5t-72.5 28.5q-46 0 -107 -35v-4 q0 -114 26.5 -164t81.5 -50q94 0 94 135z"/>
<glyph glyph-name="seven" unicode="7" d="M464 489l-135 -286q-78 -165 -170 -315l-71 27l253 565h-302v89h425v-80z"/>
<glyph glyph-name="eight" unicode="8" d="M462 172q0 -81 -55 -131.5t-166 -50.5q-104 0 -154 45.5t-50 125.5q0 59 32 101t93 77q-111 66 -111 174q0 77 53.5 124.5t151.5 47.5q192 0 192 -161q0 -55 -29.5 -94t-91.5 -75q71 -36 103 -77.5t32 -105.5zM347 510q0 52 -24 76.5t-78 24.5q-43 0 -67.5 -24.5 t-24.5 -65.5t22.5 -70.5t73.5 -56.5q52 29 75 55.5t23 60.5zM361 161q0 45 -30 76t-96 63q-96 -59 -96 -128q0 -51 29 -79t86 -28q48 0 77.5 27t29.5 69z"/>
<glyph glyph-name="nine" unicode="9" d="M450 250q0 -364 -238 -364q-78 0 -167 38l8 60q92 -19 147 -19q143 0 147 247q-79 -45 -142 -45q-82 0 -123.5 48t-41.5 137q0 104 55 165.5t148 61.5q53 0 89 -14t64 -50t41 -101.5t13 -163.5zM345 283v4q0 114 -26 164t-81 50q-95 0 -95 -135q0 -61 22.5 -89.5 t73.5 -28.5q48 0 106 35z"/>
<glyph horiz-adv-x="306" glyph-name="colon" unicode=":" d="M227 442q0 -33 -13.5 -45.5t-47.5 -12.5t-48 12.5t-14 44.5q0 33 14 46t48 13t47.5 -12.5t13.5 -45.5zM227 56q0 -34 -13.5 -46.5t-47.5 -12.5t-48 12.5t-14 44.5q0 33 14 46t48 13t47.5 -12.5t13.5 -44.5z"/>
<glyph horiz-adv-x="306" glyph-name="semicolon" unicode=";" d="M226 442q0 -33 -14 -45.5t-48 -12.5q-33 0 -47 12.5t-14 44.5q0 33 14 46t48 13q33 0 47 -12.5t14 -45.5zM226 50q0 -61 -30.5 -110.5t-97.5 -94.5l-40 37q76 53 76 101q0 12 -15.5 26t-15.5 40q0 34 13.5 47t48.5 13q33 0 47 -13t14 -46z"/>
<glyph glyph-name="less" unicode="&lt;" d="M460 441l-319 -159l318 -158l-44 -74l-382 198v67l383 198z"/>
<glyph glyph-name="equal" unicode="=" d="M454 341h-407v70h407v-70zM454 153h-407v70h407v-70z"/>
<glyph glyph-name="greater" unicode="&gt;" d="M468 249l-383 -199l-44 72l318 159l-317 158l44 75l382 -199v-66z"/>
<glyph glyph-name="question" unicode="?" d="M438 523q0 -41 -16 -74t-38.5 -56t-45.5 -45t-40 -52.5t-18 -66.5l-1 -67h-89l-3 70q-3 40 10 74t33.5 58t41 45.5t35.5 46.5t15 51q0 43 -27 68.5t-77 25.5q-60 0 -120 -23l-27 64q89 42 176 42q95 0 143 -43t48 -118zM299 50q0 -34 -13 -45.5t-52 -11.5t-52 12t-13 45 q0 34 13.5 46.5t52.5 12.5q38 0 51 -12.5t13 -46.5z"/>
<glyph horiz-adv-x="1015" glyph-name="at" unicode="@" d="M911 406q0 -150 -79.5 -238.5t-232.5 -88.5h-48l-1 83q-78 -88 -151 -88q-119 0 -119 154q0 133 64.5 204t176.5 71q80 0 149 -16l-37 -331q87 0 132 64t45 165q0 254 -261 254q-92 0 -166.5 -36t-120 -95t-70 -130.5t-24.5 -147.5q0 -154 79 -238t236 -84q55 0 125 14.5 t122 36.5l18 -62q-139 -65 -287 -65q-191 0 -291.5 98t-100.5 281q0 139 58 252t172 181.5t266 68.5q174 0 260 -81.5t86 -225.5zM567 423q-35 7 -57 7q-65 0 -100 -49t-35 -136q0 -49 12 -70.5t40 -21.5q29 0 56.5 20t62.5 69z"/>
<glyph horiz-adv-x="553" glyph-name="A" unicode="A" d="M540 0h-116q-30 126 -34 141h-241q-17 -67 -31 -141h-105q80 339 192 675h139q113 -331 196 -675zM372 222q-56 202 -106 354q-58 -192 -99 -354h205z"/>
<glyph horiz-adv-x="569" glyph-name="B" unicode="B" d="M518 210q0 -95 -67.5 -153.5t-201.5 -58.5q-29 0 -84.5 1t-81.5 1v675h204q98 0 147 -42.5t49 -113.5q0 -108 -96 -150q56 -9 93.5 -52t37.5 -107zM373 503q0 43 -27 69t-81 26h-76v-206h61q63 0 93 32t30 79zM404 201q0 53 -34.5 84.5t-108.5 31.5h-72v-236q34 -4 80 -4 q69 0 102 33.5t33 90.5z"/>
<glyph horiz-adv-x="520" glyph-name="C" unicode="C" d="M493 95q-73 -105 -201 -105q-121 0 -184 84.5t-63 250.5q0 173 68.5 266.5t190.5 93.5q119 0 176 -111l-52 -46q-44 70 -114 70q-74 0 -115 -69.5t-41 -184.5q0 -266 154 -266q73 0 133 70z"/>
<glyph horiz-adv-x="584" glyph-name="D" unicode="D" d="M539 355q0 -172 -78 -265t-236 -93q-24 0 -72.5 1.5t-69.5 1.5v675q30 0 86 0.5t85 0.5q77 0 133.5 -25t88.5 -70t47.5 -101t15.5 -125zM426 342q0 253 -183 253q-34 0 -52 -1v-511q38 -2 57 -2q178 0 178 261z"/>
<glyph horiz-adv-x="471" glyph-name="E" unicode="E" d="M422 0h-339v675h335v-84h-227v-205h187v-81h-187v-220h231v-85z"/>
<glyph horiz-adv-x="449" glyph-name="F" unicode="F" d="M412 592h-221v-212h193v-82h-193v-298h-108v675h329v-83z"/>
<glyph horiz-adv-x="571" glyph-name="G" unicode="G" d="M499 68q-89 -78 -215 -78q-115 0 -177 84t-62 253q0 171 74 264.5t191 93.5q111 0 183 -92l-47 -46q-68 52 -130 52q-74 0 -116 -65t-42 -188q0 -269 145 -269q55 0 90 29v191h-89v80h195v-309z"/>
<glyph horiz-adv-x="658" glyph-name="H" unicode="H" d="M575 0h-108v311h-276v-311h-108v675h108v-272h276v272h108v-675z"/>
<glyph horiz-adv-x="274" glyph-name="I" unicode="I" d="M191 0h-108v675h108v-675z"/>
<glyph horiz-adv-x="280" glyph-name="J" unicode="J" d="M197 70q0 -83 -24.5 -141.5t-85.5 -103.5l-53 45q33 39 44 85.5t11 120.5v599h108v-605z"/>
<glyph horiz-adv-x="532" glyph-name="K" unicode="K" d="M512 0h-126l-195 321v-321h-108v675h108v-293l185 293h121l-211 -305z"/>
<glyph horiz-adv-x="421" glyph-name="L" unicode="L" d="M404 0h-321v675h108v-592h213v-83z"/>
<glyph horiz-adv-x="845" glyph-name="M" unicode="M" d="M774 0h-113q-6 286 -33 538h-1l-172 -538h-86l-171 538h-1q-19 -242 -24 -538h-103q10 360 50 675h140l163 -496h1l164 496h134q44 -369 52 -675z"/>
<glyph horiz-adv-x="651" glyph-name="N" unicode="N" d="M568 0h-110l-284 522v-522h-91v675h135l259 -463v463h91v-675z"/>
<glyph horiz-adv-x="633" glyph-name="O" unicode="O" d="M588 350q0 -182 -75.5 -271t-204.5 -89t-196 79t-67 257q0 181 75.5 270t204.5 89t196 -79.5t67 -255.5zM474 331q0 144 -39.5 207.5t-120.5 63.5q-155 0 -155 -255q0 -146 39.5 -209.5t120.5 -63.5q155 0 155 257z"/>
<glyph horiz-adv-x="528" glyph-name="P" unicode="P" d="M503 470q0 -105 -67.5 -168.5t-213.5 -63.5h-31v-238h-108v675q25 0 81 0.5t92 0.5q247 0 247 -206zM390 459q0 68 -36 102.5t-116 34.5h-47v-277h49q75 0 112.5 36.5t37.5 103.5z"/>
<glyph horiz-adv-x="633" glyph-name="Q" unicode="Q" d="M696 -116l-35 -44q-36 21 -79 25.5t-77.5 2t-69.5 1.5t-68 33.5t-61 88.5q-129 -1 -195 79.5t-66 255.5q0 181 75.5 270t204.5 89t196 -79.5t67 -255.5q0 -156 -56.5 -244t-155.5 -108q27 -33 59 -45t63 -11t62.5 2t67.5 -12.5t68 -47.5zM474 331q0 144 -39.5 207.5 t-120.5 63.5q-155 0 -155 -255q0 -146 39.5 -209.5t120.5 -63.5q155 0 155 257z"/>
<glyph horiz-adv-x="543" glyph-name="R" unicode="R" d="M534 0h-126l-172 295h-45v-295h-108v675q114 2 187 2q113 0 170.5 -47t57.5 -128q0 -152 -157 -185zM385 490q0 54 -31.5 81.5t-103.5 27.5h-59v-225h66q62 0 95 30t33 86z"/>
<glyph horiz-adv-x="496" glyph-name="S" unicode="S" d="M464 187q0 -86 -63 -141t-169 -55q-99 0 -192 63l29 58q80 -40 145 -40q61 0 95.5 27t34.5 75q0 40 -30.5 69.5t-74 49.5t-87 43t-74 64.5t-30.5 100.5q0 82 57.5 132.5t148.5 50.5q94 0 171 -50l-26 -58q-66 28 -130 28q-52 0 -80 -25t-28 -64q0 -30 16.5 -53.5 t43.5 -40t59 -31.5t64.5 -32.5t59.5 -39t43.5 -55t16.5 -76.5z"/>
<glyph horiz-adv-x="466" glyph-name="T" unicode="T" d="M451 590h-164v-590h-108v590h-164v85h436v-85z"/>
<glyph horiz-adv-x="652" glyph-name="U" unicode="U" d="M570 246q0 -131 -67.5 -193.5t-187.5 -62.5q-118 0 -175.5 57.5t-57.5 184.5v443h108v-430q0 -95 32 -134.5t105 -39.5q68 0 102.5 38t34.5 129v437h106v-429z"/>
<glyph horiz-adv-x="534" glyph-name="V" unicode="V" d="M519 675q-66 -354 -184 -675h-128q-122 343 -196 675h118q36 -173 151 -564q82 266 132 564h107z"/>
<glyph horiz-adv-x="859" glyph-name="W" unicode="W" d="M839 675q-77 -368 -171 -675h-118l-102 402l-21 101h-1l-19 -102l-95 -401h-119q-97 314 -172 675h116q23 -119 125 -539h1l15 79l108 460h103l113 -454l17 -85h2q79 340 115 539h103z"/>
<glyph horiz-adv-x="546" glyph-name="X" unicode="X" d="M525 0h-120q-74 158 -142 270q-70 -116 -136 -270h-108q70 168 185 353q-96 162 -168 322h118q66 -148 123 -242q63 100 123 242h106q-66 -157 -169 -316q110 -181 188 -359z"/>
<glyph horiz-adv-x="486" glyph-name="Y" unicode="Y" d="M489 675q-97 -242 -192 -387v-288h-108v288q-103 165 -192 387h120q66 -166 135 -289q61 103 127 289h110z"/>
<glyph horiz-adv-x="485" glyph-name="Z" unicode="Z" d="M453 0h-419v73l275 516h-263v86h392v-76l-273 -512h288v-87z"/>
<glyph horiz-adv-x="356" glyph-name="bracketleft" unicode="[" d="M293 -173h-187v912h187v-61h-93v-791h93v-60z"/>
<glyph glyph-name="backslash" unicode="\" d="M500 -104h-89l-400 813h89z"/>
<glyph horiz-adv-x="356" glyph-name="bracketright" unicode="]" d="M250 -173h-187v60h93v791h-93v61h187v-912z"/>
<glyph glyph-name="asciicircum" unicode="^" d="M468 394l-81 -30l-137 260l-138 -260l-79 30l175 315h85z"/>
<glyph glyph-name="underscore" unicode="_" d="M500 -173h-500v77h500v-77z"/>
<glyph horiz-adv-x="314" glyph-name="grave" unicode="`" d="M245 590l-47 -32l-154 120l70 44z"/>
<glyph horiz-adv-x="502" glyph-name="a" unicode="a" d="M427 0h-80l-8 54q-74 -64 -154 -64q-73 0 -111.5 36t-38.5 102q0 79 63.5 124.5t190.5 45.5h36v45q0 45 -24.5 67t-78.5 22q-67 0 -146 -29l-15 63q93 41 189 41q90 0 133.5 -40t43.5 -111v-356zM325 115v118h-43q-81 0 -113 -23.5t-32 -66.5q0 -36 20 -57t57 -21 q53 0 111 50z"/>
<glyph horiz-adv-x="526" glyph-name="b" unicode="b" d="M482 268q0 -142 -68.5 -210t-185.5 -68q-65 0 -153 18v701h103v-256q69 55 131 55q81 0 127 -67.5t46 -172.5zM376 251q0 83 -25 130t-70 47q-47 0 -103 -50v-302q29 -11 69 -11q58 0 93.5 47.5t35.5 138.5z"/>
<glyph horiz-adv-x="425" glyph-name="c" unicode="c" d="M400 64q-68 -73 -165 -73q-193 0 -193 251q0 121 57 193.5t151 72.5q84 0 138 -62l-37 -53q-42 37 -91 37q-53 0 -82 -45.5t-29 -129.5q0 -185 106 -185q61 0 111 47z"/>
<glyph horiz-adv-x="526" glyph-name="d" unicode="d" d="M451 0h-84l-9 53q-75 -63 -143 -63q-80 0 -125.5 67t-45.5 173q0 142 67 210t174 68q33 0 63 -4v205h103v-709zM348 120v302q-35 11 -71 11q-58 0 -92.5 -47t-34.5 -140q0 -83 25.5 -129.5t69.5 -46.5q45 0 103 50z"/>
<glyph horiz-adv-x="498" glyph-name="e" unicode="e" d="M445 232h-297v-9q0 -153 125 -153q75 0 153 29l17 -60q-96 -49 -192 -49q-209 0 -209 245q0 131 56.5 202t158.5 71q204 0 188 -276zM345 298v3q0 136 -94 136q-46 0 -73 -39t-30 -100h197z"/>
<glyph horiz-adv-x="299" glyph-name="f" unicode="f" d="M332 688l-18 -59q-38 14 -64 14q-61 0 -61 -72v-73h100v-73h-100v-425h-103v425h-72v73h72v69q0 152 133 152q59 0 113 -31z"/>
<glyph horiz-adv-x="528" glyph-name="g" unicode="g" d="M451 17q0 -111 -53 -154t-149 -43q-78 0 -166 35l9 58q143 -26 199.5 -9.5t56.5 93.5v66q-69 -53 -134 -53q-78 0 -124 66t-46 165q0 133 69.5 200t179.5 67q65 0 158 -19v-472zM348 137v284q-32 12 -72 12q-56 0 -91 -46t-35 -128q0 -81 25 -126.5t71 -45.5q45 0 102 50 z"/>
<glyph horiz-adv-x="543" glyph-name="h" unicode="h" d="M472 285q0 -25 -2 -125.5t-2 -159.5h-102q0 54 1 146t1 117q0 91 -20 126.5t-63 35.5q-46 0 -107 -50v-375h-103v709h103v-259q69 58 143 58t112.5 -52.5t38.5 -170.5z"/>
<glyph horiz-adv-x="253" glyph-name="i" unicode="i" d="M189 635q0 -32 -12.5 -44t-49.5 -12q-38 0 -50.5 11.5t-12.5 44.5t12.5 45t50.5 12t50 -11.5t12 -45.5zM178 0h-103v498h103v-498z"/>
<glyph horiz-adv-x="253" glyph-name="j" unicode="j" d="M189 635q0 -32 -12.5 -44t-49.5 -12q-38 0 -50.5 11.5t-12.5 44.5t12.5 45t50.5 12t50 -11.5t12 -45.5zM178 42q0 -73 -24 -124.5t-79 -97.5l-65 32q65 75 65 167v479h103v-456z"/>
<glyph horiz-adv-x="470" glyph-name="k" unicode="k" d="M460 0h-122l-160 255v-255h-103v709h103v-407l134 196h123l-164 -208z"/>
<glyph horiz-adv-x="272" glyph-name="l" unicode="l" d="M248 4q-36 -11 -82 -11q-49 0 -70 20.5t-21 78.5v617h103v-577q0 -43 7 -55t29 -12q5 0 15.5 0.5t14.5 0.5z"/>
<glyph horiz-adv-x="817" glyph-name="m" unicode="m" d="M746 285q0 -28 -1.5 -128t-1.5 -157h-103q0 51 1.5 143.5t1.5 120.5q0 89 -19 125t-58 36q-44 0 -111 -56q6 -36 6 -82v-287h-102v264q0 88 -19 124.5t-57 36.5q-43 0 -105 -50v-375h-103v498h85l8 -56q71 66 150 66q44 0 74 -21.5t45 -54.5q86 76 164 76q71 0 108 -53 t37 -170z"/>
<glyph horiz-adv-x="543" glyph-name="n" unicode="n" d="M472 285q0 -28 -2 -128t-2 -157h-102q0 51 1 143.5t1 120.5q0 90 -20 125.5t-62 35.5q-46 0 -108 -50v-375h-103v498h85l8 -56q73 66 154 66q75 0 112.5 -52.5t37.5 -170.5z"/>
<glyph horiz-adv-x="525" glyph-name="o" unicode="o" d="M483 261q0 -134 -61.5 -202.5t-169.5 -68.5q-210 0 -210 249q0 134 61 201.5t170 67.5q210 0 210 -247zM377 238q0 106 -28 149.5t-88 43.5q-113 0 -113 -170q0 -107 28 -150.5t88 -43.5q113 0 113 171z"/>
<glyph horiz-adv-x="526" glyph-name="p" unicode="p" d="M482 269q0 -141 -67 -210t-178 -69q-34 0 -59 4v-167h-103v671h83l10 -53q73 63 141 63q82 0 127.5 -67t45.5 -172zM376 252q0 82 -25.5 129t-69.5 47q-45 0 -103 -50v-301q30 -12 69 -12q58 0 93.5 47.5t35.5 139.5z"/>
<glyph horiz-adv-x="526" glyph-name="q" unicode="q" d="M451 -173h-103v218q-67 -55 -131 -55q-81 0 -127 67.5t-46 172.5q0 141 68.5 209.5t186.5 68.5q71 0 152 -19v-662zM348 120v302q-28 11 -69 11q-59 0 -94 -47.5t-35 -139.5q0 -82 25.5 -129t69.5 -47q46 0 103 50z"/>
<glyph horiz-adv-x="357" glyph-name="r" unicode="r" d="M337 496l-12 -92q-27 7 -42 7q-22 0 -45 -18.5t-60 -64.5v-328h-103v498h85l9 -84q40 51 68 72t56 21q22 0 44 -11z"/>
<glyph horiz-adv-x="408" glyph-name="s" unicode="s" d="M374 143q0 -67 -51.5 -109.5t-140.5 -42.5q-77 0 -147 38l10 55q79 -19 119 -19q51 0 76 18.5t25 47.5q0 30 -19 48t-77 40q-73 27 -102.5 59t-29.5 84q0 65 47 105t125 40q67 0 128 -32l-12 -55q-52 15 -96 15q-41 0 -63 -17.5t-22 -44.5t20 -43.5t79 -38.5 q70 -25 100.5 -59.5t30.5 -88.5z"/>
<glyph horiz-adv-x="351" glyph-name="t" unicode="t" d="M325 22q-62 -31 -119 -31q-65 0 -92.5 30t-27.5 102v302h-72v73h75q15 68 25 144h75v-144h122v-73h-122v-277q0 -45 11 -62t41 -17t73 14z"/>
<glyph horiz-adv-x="543" glyph-name="u" unicode="u" d="M468 0h-84l-8 56q-74 -66 -154 -66q-75 0 -112.5 52.5t-37.5 171.5q0 27 1.5 127t1.5 157h103q0 -51 -1.5 -143t-1.5 -121q0 -90 20 -125.5t62 -35.5q44 0 108 50v375h103v-498z"/>
<glyph horiz-adv-x="470" glyph-name="v" unicode="v" d="M450 498q-49 -276 -154 -498h-127l-153 498h111l95 -306l21 -92q74 204 99 398h108z"/>
<glyph horiz-adv-x="742" glyph-name="w" unicode="w" d="M715 498q-35 -234 -135 -498h-117l-90 325l-10 53h-1l-6 -50l-80 -328h-121l-139 498h111l77 -296l20 -86h1l15 75l73 307h114l86 -309l17 -72h1q64 226 83 381h101z"/>
<glyph horiz-adv-x="478" glyph-name="x" unicode="x" d="M456 0h-119l-106 203q-68 -132 -99 -203h-112l150 262l-127 236h116l85 -173q47 82 81 173h107l-128 -224z"/>
<glyph horiz-adv-x="470" glyph-name="y" unicode="y" d="M448 498q-29 -159 -67 -281t-75.5 -195.5t-80 -119.5t-78.5 -63t-74 -17q-28 0 -69 17v61q19 -3 47 -3q49 0 79 27q36 33 36 74q0 38 -28 115l-124 385h111l89 -288q31 -94 25 -137q73 195 102 425h107z"/>
<glyph horiz-adv-x="400" glyph-name="z" unicode="z" d="M364 79l-5 -79h-323v63l193 358h-185l4 77h301v-62l-194 -357h209z"/>
<glyph horiz-adv-x="388" glyph-name="braceleft" unicode="{" d="M311 -173h-45q-71 0 -99.5 32.5t-28.5 98.5v208q0 84 -65 84h-25v76h25q35 0 50 20t15 61v202q0 130 131 130h42v-62h-28q-56 0 -56 -68v-178q0 -124 -86 -142q86 -20 86 -145v-187q0 -37 12 -52.5t44 -15.5h28v-62z"/>
<glyph horiz-adv-x="252" glyph-name="bar" unicode="|" d="M171 -173h-91v926h91v-926z"/>
<glyph horiz-adv-x="388" glyph-name="braceright" unicode="}" d="M339 250h-25q-36 0 -50.5 -20t-14.5 -61v-212q0 -130 -131 -130h-42v62h28q56 0 56 68v188q0 124 86 142q-86 20 -86 145v177q0 36 -12.5 52t-43.5 16h-28v62h45q71 0 99.5 -32.5t28.5 -98.5v-198q0 -42 14.5 -63t50.5 -21h25v-76z"/>
<glyph glyph-name="asciitilde" unicode="~" d="M468 587q0 -67 -37.5 -109t-101.5 -42q-38 0 -66.5 16.5t-41.5 36.5t-30 36.5t-35 16.5q-52 0 -52 -88h-78v17q0 68 37.5 109.5t100.5 41.5q38 0 66 -16.5t41 -36.5t30.5 -36.5t35.5 -16.5q52 0 52 89h79v-18z"/>
<glyph horiz-adv-x="240" glyph-name="nbspace" unicode=" "/>
<glyph horiz-adv-x="374" glyph-name="exclamdown" unicode="¡" d="M212 522q0 -32 -13.5 -44.5t-47.5 -12.5t-47 12t-13 45t13 45t47 12t47.5 -12t13.5 -45zM210 -104h-119l19 524h81z"/>
<glyph glyph-name="cent" unicode="¢" d="M432 173q-56 -52 -122 -63l-9 -113h-63l-7 108q-172 18 -172 226q0 98 46.5 160t124.5 78l8 108h63l9 -107q62 -9 109 -56l-36 -53q-48 38 -96 38q-53 0 -87 -40.5t-34 -113.5q0 -84 32 -124.5t86 -40.5q60 0 115 46z"/>
<glyph glyph-name="sterling" unicode="£" d="M456 0h-415v69q53 54 70 107t8 129h-86v70h74q-18 79 -18 118q0 96 50.5 143t138.5 47q87 0 162 -40l-12 -57q-68 19 -122 19q-61 0 -85 -26.5t-24 -78.5q0 -25 19 -125h173v-70h-163q8 -74 -5.5 -125t-58.5 -97h294v-83z"/>
<glyph glyph-name="currency" unicode="¤" d="M470 57l-69 -44l-63 84q-44 -25 -97 -25q-50 0 -82 20l-59 -79l-69 44l68 72q-32 45 -32 126q0 85 38 134l-74 79l68 43l64 -83q41 24 96 24q48 0 82 -20l60 79l69 -43l-69 -74q33 -44 33 -122q0 -85 -39 -135zM342 254q0 76 -22.5 107t-72.5 31q-91 0 -91 -120 q0 -77 22.5 -108.5t72.5 -31.5q91 0 91 122z"/>
<glyph glyph-name="yen" unicode="¥" d="M491 675q-102 -220 -190 -348v-19h137v-69h-137v-78h137v-69h-137v-92h-102v92h-137v69h137v78h-137v69h137v19q-97 146 -189 348h115q68 -163 133 -267q60 93 126 267h107z"/>
<glyph horiz-adv-x="252" glyph-name="brokenbar" unicode="¦" d="M171 365h-89v391h89v-391zM171 -173h-89v372h89v-372z"/>
<glyph horiz-adv-x="504" glyph-name="section" unicode="§" d="M469 141q0 -119 -83.5 -218t-173.5 -99q-61 0 -116 34l22 59q47 -16 93 -16q44 0 61 18.5t17 54.5q0 31 -25.5 62.5t-62 62t-73 66t-62 87t-25.5 111.5q0 117 79 217.5t175 100.5q60 0 106 -29l-19 -60q-42 13 -86 13q-42 0 -58.5 -19t-16.5 -57q0 -29 25.5 -59.5t62 -61 t73 -66t62 -88t25.5 -113.5zM381 126q0 52 -27 97t-63 77t-70 62t-50.5 65t-2.5 73q-40 -50 -40 -118q0 -44 19.5 -83.5t47 -66t59 -56t55 -52t34.5 -55t-1 -65.5q39 54 39 122z"/>
<glyph horiz-adv-x="417" glyph-name="dieresis" unicode="¨" d="M358 639q0 -28 -11.5 -38.5t-40.5 -10.5t-40.5 10.5t-11.5 38.5t11 38t41 10q29 0 40.5 -10t11.5 -38zM163 639q0 -27 -11.5 -38t-39.5 -11q-30 0 -42 11t-12 38q0 28 12 38t42 10q29 0 40 -10t11 -38z"/>
<glyph horiz-adv-x="772" glyph-name="copyright" unicode="©" d="M737 338q0 -146 -101.5 -246.5t-248.5 -100.5q-152 0 -249.5 96.5t-97.5 249.5q0 145 101.5 245t247.5 100q152 0 250 -97.5t98 -246.5zM654 337q0 119 -75 196t-191 77q-113 0 -189 -78.5t-76 -194.5q0 -118 75 -196t190 -78q114 0 190 78.5t76 195.5zM514 200 q-57 -54 -130 -54q-151 0 -151 188q0 91 44 145t118 54q63 0 109 -48l-31 -41q-33 26 -70 26q-38 0 -60 -33.5t-22 -91.5q0 -135 79 -135q46 0 86 33z"/>
<glyph horiz-adv-x="459" glyph-name="ordfeminine" unicode="ª" d="M364 339h-68l-6 40q-62 -47 -118 -47q-50 0 -81 30t-31 76q0 55 46 88.5t141 33.5h32v30q0 61 -78 61q-48 0 -110 -20l-12 53q74 32 149 32q74 0 105 -30.5t31 -88.5v-258zM370 207h-300v61h300v-61zM279 426v81h-31q-60 0 -82 -16.5t-22 -45.5q0 -23 14 -37.5t39 -14.5 q24 0 82 33z"/>
<glyph horiz-adv-x="503" glyph-name="guillemotleft" unicode="«" d="M436 456l-89 -168l89 -167l-67 -24l-124 191l124 192zM237 118l-68 -24l-126 194l127 195l67 -25l-92 -170z"/>
<glyph glyph-name="logicalnot" unicode="¬" d="M449 113h-86v134h-328v70h414v-204z"/>
<glyph horiz-adv-x="567" glyph-name="registered" unicode="®" d="M517 484q0 -94 -69 -160.5t-166 -66.5t-165 66t-68 161t69 161.5t166 66.5t165 -66t68 -162zM457 484q0 72 -51 124t-123 52t-123.5 -51.5t-51.5 -123.5t51.5 -124t123.5 -52t123 51.5t51 123.5zM370 538q0 -46 -51 -67l57 -101h-63l-46 93h-8v-93h-53v235q16 0 40.5 0.5 t33.5 0.5q44 0 67 -18t23 -50zM315 533q0 33 -39 33h-17v-64h20q17 0 26.5 9t9.5 22z"/>
<glyph horiz-adv-x="337" glyph-name="macron" unicode="¯" d="M319 602h-306v71h306v-71z"/>
<glyph horiz-adv-x="450" glyph-name="degree" unicode="°" d="M371 560q0 -68 -37 -103t-107 -35q-76 0 -111 32t-35 103q0 138 148 138q74 0 108 -32t34 -103zM290 559q0 43 -13.5 58.5t-49.5 15.5t-50.5 -17t-14.5 -57q0 -41 13.5 -57.5t51.5 -16.5q35 0 49 17.5t14 56.5z"/>
<glyph glyph-name="plusminus" unicode="±" d="M459 307h-168v-174h-82v174h-169v73h169v170h82v-170h168v-73zM459 0h-419v73h419v-73z"/>
<glyph glyph-name="twosuperior" unicode="²" d="M389 377h-252v56q87 54 113.5 83t26.5 60q0 25 -10.5 36t-36.5 11q-36 0 -76 -18l-11 52q61 28 117 28q55 0 83.5 -25t28.5 -71q0 -44 -28 -75.5t-93 -74.5h138v-62z"/>
<glyph glyph-name="threesuperior" unicode="³" d="M385 467q0 -45 -35 -72t-100 -27q-61 0 -124 28l11 43q55 -17 100 -17q58 0 58 40q0 22 -13.5 32t-50.5 10h-43v50h41q52 0 52 40q0 20 -10.5 28.5t-37.5 8.5q-43 0 -75 -12l-11 42q50 24 111 24q108 0 108 -79q0 -46 -45 -69q64 -9 64 -70z"/>
<glyph horiz-adv-x="314" glyph-name="acute" unicode="´" d="M243 679l-159 -121l-45 32l135 133z"/>
<glyph horiz-adv-x="632" glyph-name="paragraph" unicode="¶" d="M544 -104h-82v712h-97v-712h-82v394q-95 -12 -159 42t-64 148q0 87 55.5 141t152.5 54h276v-779z"/>
<glyph horiz-adv-x="309" glyph-name="cedilla" unicode="¸" d="M197 -43q11 -83 -78 -138l-58 27q31 28 41.5 52t5.5 59h89z"/>
<glyph glyph-name="onesuperior" unicode="¹" d="M376 377h-231v64h79v158l-75 -29l-14 49l109 56h64v-234h68v-64z"/>
<glyph horiz-adv-x="435" glyph-name="ordmasculine" unicode="º" d="M383 532q0 -97 -48.5 -148t-127.5 -51q-162 0 -162 186q0 97 48.5 146.5t124.5 49.5q74 0 119.5 -45t45.5 -138zM365 207h-300v61h300v-61zM295 514q0 75 -20 106.5t-62 31.5q-81 0 -81 -117q0 -77 20.5 -108.5t62.5 -31.5q80 0 80 119z"/>
<glyph horiz-adv-x="503" glyph-name="guillemotright" unicode="»" d="M462 288l-127 -195l-67 25l91 170l-91 170l68 25zM263 288l-125 -191l-67 24l89 167l-89 168l67 23z"/>
<glyph horiz-adv-x="699" glyph-name="onequarter" unicode="¼" d="M621 659l-488 -676l-55 33l488 676zM296 377h-231v64h79v158l-75 -29l-14 49l109 56h64v-234h68v-64zM645 52h-53v-52h-82v52h-155v50q59 107 130 196h107v-186h53v-60zM511 111v134q-52 -64 -88 -134h88z"/>
<glyph horiz-adv-x="699" glyph-name="onehalf" unicode="½" d="M621 659l-488 -676l-55 33l488 676zM296 377h-231v64h79v158l-75 -29l-14 49l109 56h64v-234h68v-64zM644 0h-252v56q87 54 113.5 83t26.5 60q0 25 -10.5 36t-36.5 11q-37 0 -75 -18l-11 52q61 28 116 28t84 -25t29 -71q0 -44 -28.5 -75t-93.5 -75h138v-62z"/>
<glyph horiz-adv-x="699" glyph-name="threequarters" unicode="¾" d="M621 659l-488 -676l-55 33l488 676zM298 467q0 -46 -34.5 -72.5t-100.5 -26.5q-61 0 -124 28l11 43q55 -17 100 -17q58 0 58 40q0 22 -13.5 32t-50.5 10h-43v50h41q29 0 40.5 9.5t11.5 30.5q0 20 -10 28.5t-38 8.5q-43 0 -75 -12l-11 42q50 24 111 24q108 0 108 -79 q0 -46 -45 -69q64 -9 64 -70zM645 52h-53v-52h-82v52h-155v50q59 107 130 196h107v-186h53v-60zM511 111v134q-52 -64 -88 -134h88z"/>
<glyph glyph-name="questiondown" unicode="¿" d="M325 521q0 -32 -14 -44.5t-48 -12.5t-46.5 12t-12.5 45t13 45t46 12q34 0 48 -12t14 -45zM426 -71q-82 -42 -174 -42q-96 0 -143.5 44t-47.5 120q0 41 16 74.5t39.5 58t46.5 47.5t40.5 54t18.5 67l3 67h78l4 -60q5 -51 -14.5 -96t-45.5 -72.5t-48.5 -62t-22.5 -65.5 q0 -42 27 -67.5t77 -25.5q61 0 120 22z"/>
<glyph horiz-adv-x="553" glyph-name="Agrave" unicode="À" d="M540 0h-116q-30 126 -34 141h-241q-17 -67 -31 -141h-105q80 339 192 675h139q113 -331 196 -675zM372 222q-56 202 -106 354q-58 -192 -99 -354h205zM327 768l-32 -45l-189 71l51 62z"/>
<glyph horiz-adv-x="553" glyph-name="Aacute" unicode="Á" d="M540 0h-116q-30 126 -34 141h-241q-17 -67 -31 -141h-105q80 339 192 675h139q113 -331 196 -675zM372 222q-56 202 -106 354q-58 -192 -99 -354h205zM423 794l-189 -71l-33 45l173 88z"/>
<glyph horiz-adv-x="553" glyph-name="Acircumflex" unicode="Â" d="M540 0h-116q-30 126 -34 141h-241q-17 -67 -31 -141h-105q80 339 192 675h139q113 -331 196 -675zM372 222q-56 202 -106 354q-58 -192 -99 -354h205zM420 763l-29 -38l-120 57l-118 -57l-29 39l149 92z"/>
<glyph horiz-adv-x="553" glyph-name="Atilde" unicode="Ã" d="M540 0h-116q-30 126 -34 141h-241q-17 -67 -31 -141h-105q80 339 192 675h139q113 -331 196 -675zM372 222q-56 202 -106 354q-58 -192 -99 -354h205zM436 814q-26 -45 -51 -63t-61 -18q-27 0 -49 13.5t-39 26.5t-29 13q-14 0 -25 -10.5t-32 -40.5l-47 29q24 44 49 63 t61 19q33 0 70 -27t48 -27q14 0 25 10.5t33 41.5z"/>
<glyph horiz-adv-x="553" glyph-name="Adieresis" unicode="Ä" d="M540 0h-116q-30 126 -34 141h-241q-17 -67 -31 -141h-105q80 339 192 675h139q113 -331 196 -675zM372 222q-56 202 -106 354q-58 -192 -99 -354h205zM217 783q0 -28 -10 -37t-41 -9t-41 9t-10 36q0 28 10 37t42 9q31 0 40.5 -8.5t9.5 -36.5zM422 783q0 -28 -10.5 -37 t-41.5 -9q-32 0 -41.5 9t-9.5 36q0 28 10 37t42 9q31 0 41 -8.5t10 -36.5z"/>
<glyph horiz-adv-x="553" glyph-name="Aring" unicode="Å" d="M540 0h-116q-30 126 -34 141h-241q-17 -67 -31 -141h-105q80 339 192 675h139q113 -331 196 -675zM372 222q-56 202 -106 354q-58 -192 -99 -354h205zM384 784q0 -46 -30 -71.5t-82 -25.5q-109 0 -109 94q0 42 31.5 68.5t81.5 26.5q108 0 108 -92zM316 781q0 44 -42 44 q-43 0 -43 -44q0 -43 43 -43q42 0 42 43z"/>
<glyph horiz-adv-x="728" glyph-name="AE" unicode="Æ" d="M678 0h-344v141h-191q-39 -100 -52 -141h-108q139 359 293 675h398v-84h-232v-205h193v-81h-193v-220h236v-85zM334 222v370h-1q-79 -167 -162 -370h163z"/>
<glyph horiz-adv-x="520" glyph-name="Ccedilla" unicode="Ç" d="M493 95q-73 -105 -201 -105q-121 0 -184 84.5t-63 250.5q0 173 68.5 266.5t190.5 93.5q119 0 176 -111l-52 -46q-44 70 -114 70q-74 0 -115 -69.5t-41 -184.5q0 -266 154 -266q73 0 133 70zM340 -43q11 -83 -78 -138l-58 27q31 28 41.5 52t5.5 59h89z"/>
<glyph horiz-adv-x="471" glyph-name="Egrave" unicode="È" d="M422 0h-339v675h335v-84h-227v-205h187v-81h-187v-220h231v-85zM313 768l-32 -45l-189 71l51 62z"/>
<glyph horiz-adv-x="471" glyph-name="Eacute" unicode="É" d="M422 0h-339v675h335v-84h-227v-205h187v-81h-187v-220h231v-85zM395 794l-189 -71l-33 45l173 88z"/>
<glyph horiz-adv-x="471" glyph-name="Ecircumflex" unicode="Ê" d="M422 0h-339v675h335v-84h-227v-205h187v-81h-187v-220h231v-85zM401 763l-29 -38l-120 57l-118 -57l-29 39l149 92z"/>
<glyph horiz-adv-x="471" glyph-name="Edieresis" unicode="Ë" d="M422 0h-339v675h335v-84h-227v-205h187v-81h-187v-220h231v-85zM199 783q0 -28 -10 -37t-41 -9t-41 9t-10 36q0 28 10 37t42 9q31 0 40.5 -8.5t9.5 -36.5zM404 783q0 -28 -10.5 -37t-41.5 -9q-32 0 -41.5 9t-9.5 36q0 28 10 37t42 9q31 0 41 -8.5t10 -36.5z"/>
<glyph horiz-adv-x="274" glyph-name="Igrave" unicode="Ì" d="M191 0h-108v675h108v-675zM212 768l-32 -45l-189 71l51 62z"/>
<glyph horiz-adv-x="274" glyph-name="Iacute" unicode="Í" d="M191 0h-108v675h108v-675zM282 794l-189 -71l-33 45l173 88z"/>
<glyph horiz-adv-x="274" glyph-name="Icircumflex" unicode="Î" d="M191 0h-108v675h108v-675zM286 763l-29 -38l-120 57l-118 -57l-29 39l149 92z"/>
<glyph horiz-adv-x="274" glyph-name="Idieresis" unicode="Ï" d="M191 0h-108v675h108v-675zM86 783q0 -28 -10 -37t-41 -9t-41 9t-10 36q0 28 10 37t42 9q31 0 40.5 -8.5t9.5 -36.5zM291 783q0 -28 -10.5 -37t-41.5 -9q-32 0 -41.5 9t-9.5 36q0 28 10 37t42 9q31 0 41 -8.5t10 -36.5z"/>
<glyph horiz-adv-x="594" glyph-name="Eth" unicode="Ð" d="M549 355q0 -172 -78.5 -265t-237.5 -93q-24 0 -71.5 1.5t-67.5 1.5v308h-65v75h65v292q30 0 85 0.5t84 0.5q148 0 217 -88.5t69 -232.5zM437 342q0 253 -185 253q-35 0 -52 -1v-211h110v-75h-110v-225q36 -2 53 -2q184 0 184 261z"/>
<glyph horiz-adv-x="655" glyph-name="Ntilde" unicode="Ñ" d="M568 0h-110l-284 522v-522h-91v675h135l259 -463v463h91v-675zM495 814q-26 -45 -51 -63t-61 -18q-27 0 -49 13.5t-39 26.5t-29 13q-14 0 -25 -10.5t-32 -40.5l-47 29q24 44 49 63t61 19q33 0 70 -27t48 -27q14 0 25 10.5t33 41.5z"/>
<glyph horiz-adv-x="633" glyph-name="Ograve" unicode="Ò" d="M588 350q0 -182 -75.5 -271t-204.5 -89t-196 79t-67 257q0 181 75.5 270t204.5 89t196 -79.5t67 -255.5zM474 331q0 144 -39.5 207.5t-120.5 63.5q-155 0 -155 -255q0 -146 39.5 -209.5t120.5 -63.5q155 0 155 257zM389 768l-32 -45l-189 71l51 62z"/>
<glyph horiz-adv-x="633" glyph-name="Oacute" unicode="Ó" d="M588 350q0 -182 -75.5 -271t-204.5 -89t-196 79t-67 257q0 181 75.5 270t204.5 89t196 -79.5t67 -255.5zM474 331q0 144 -39.5 207.5t-120.5 63.5q-155 0 -155 -255q0 -146 39.5 -209.5t120.5 -63.5q155 0 155 257zM475 794l-189 -71l-33 45l173 88z"/>
<glyph horiz-adv-x="633" glyph-name="Ocircumflex" unicode="Ô" d="M588 350q0 -182 -75.5 -271t-204.5 -89t-196 79t-67 257q0 181 75.5 270t204.5 89t196 -79.5t67 -255.5zM474 331q0 144 -39.5 207.5t-120.5 63.5q-155 0 -155 -255q0 -146 39.5 -209.5t120.5 -63.5q155 0 155 257zM468 763l-29 -38l-120 57l-118 -57l-29 39l149 92z"/>
<glyph horiz-adv-x="633" glyph-name="Otilde" unicode="Õ" d="M588 350q0 -182 -75.5 -271t-204.5 -89t-196 79t-67 257q0 181 75.5 270t204.5 89t196 -79.5t67 -255.5zM474 331q0 144 -39.5 207.5t-120.5 63.5q-155 0 -155 -255q0 -146 39.5 -209.5t120.5 -63.5q155 0 155 257zM486 814q-26 -45 -51 -63t-61 -18q-27 0 -49 13.5 t-38.5 26.5t-29.5 13q-14 0 -25 -10.5t-32 -40.5l-47 29q24 44 49 63t61 19q33 0 70 -27t48 -27q14 0 25 10.5t33 41.5z"/>
<glyph horiz-adv-x="633" glyph-name="Odieresis" unicode="Ö" d="M588 350q0 -182 -75.5 -271t-204.5 -89t-196 79t-67 257q0 181 75.5 270t204.5 89t196 -79.5t67 -255.5zM474 331q0 144 -39.5 207.5t-120.5 63.5q-155 0 -155 -255q0 -146 39.5 -209.5t120.5 -63.5q155 0 155 257zM268 783q0 -28 -10 -37t-41 -9t-41 9t-10 36 q0 28 10 37t42 9q31 0 40.5 -8.5t9.5 -36.5zM473 783q0 -28 -10.5 -37t-41.5 -9q-32 0 -41.5 9t-9.5 36q0 28 10 37t42 9q31 0 41 -8.5t10 -36.5z"/>
<glyph glyph-name="multiply" unicode="×" d="M437 165l-56 -56l-131 131l-130 -131l-56 55l131 131l-130 130l56 56l130 -130l130 130l55 -55l-130 -130z"/>
<glyph horiz-adv-x="633" glyph-name="Oslash" unicode="Ø" d="M588 350q0 -182 -75.5 -271t-204.5 -89q-84 0 -140 36l-61 -102l-58 31l66 111q-70 81 -70 260q0 181 75.5 270t204.5 89q82 0 140 -36l61 102l58 -31l-66 -110q70 -84 70 -260zM416 570q-37 36 -103 36q-160 0 -160 -259q0 -109 32 -167zM480 331q0 106 -32 164 l-231 -389q36 -37 103 -37q160 0 160 262z"/>
<glyph horiz-adv-x="652" glyph-name="Ugrave" unicode="Ù" d="M570 246q0 -131 -67.5 -193.5t-187.5 -62.5q-118 0 -175.5 57.5t-57.5 184.5v443h108v-430q0 -95 32 -134.5t105 -39.5q68 0 102.5 38t34.5 129v437h106v-429zM368 768l-32 -45l-189 71l51 62z"/>
<glyph horiz-adv-x="652" glyph-name="Uacute" unicode="Ú" d="M570 246q0 -131 -67.5 -193.5t-187.5 -62.5q-118 0 -175.5 57.5t-57.5 184.5v443h108v-430q0 -95 32 -134.5t105 -39.5q68 0 102.5 38t34.5 129v437h106v-429zM512 794l-189 -71l-33 45l173 88z"/>
<glyph horiz-adv-x="652" glyph-name="Ucircumflex" unicode="Û" d="M570 246q0 -131 -67.5 -193.5t-187.5 -62.5q-118 0 -175.5 57.5t-57.5 184.5v443h108v-430q0 -95 32 -134.5t105 -39.5q68 0 102.5 38t34.5 129v437h106v-429zM479 763l-29 -38l-120 57l-118 -57l-29 39l149 92z"/>
<glyph horiz-adv-x="652" glyph-name="Udieresis" unicode="Ü" d="M570 246q0 -131 -67.5 -193.5t-187.5 -62.5q-118 0 -175.5 57.5t-57.5 184.5v443h108v-430q0 -95 32 -134.5t105 -39.5q68 0 102.5 38t34.5 129v437h106v-429zM279 783q0 -28 -10 -37t-41 -9t-41 9t-10 36q0 28 10 37t42 9q31 0 40.5 -8.5t9.5 -36.5zM484 783 q0 -28 -10.5 -37t-41.5 -9q-32 0 -41.5 9t-9.5 36q0 28 10 37t42 9q31 0 41 -8.5t10 -36.5z"/>
<glyph horiz-adv-x="486" glyph-name="Yacute" unicode="Ý" d="M489 675q-97 -242 -192 -387v-288h-108v288q-103 165 -192 387h120q66 -166 135 -289q61 103 127 289h110zM413 794l-189 -71l-33 45l173 88z"/>
<glyph horiz-adv-x="528" glyph-name="Thorn" unicode="Þ" d="M503 365q0 -105 -67 -168t-214 -63h-31v-134h-108v675h109v-104q17 1 64 1q247 0 247 -207zM390 354q0 68 -36 103t-116 35h-47v-278h49q75 0 112.5 37t37.5 103z"/>
<glyph horiz-adv-x="558" glyph-name="germandbls" unicode="ß" d="M525 144q0 -66 -40 -109t-114 -43q-69 0 -121 30l10 53q50 -11 84 -11q37 0 57 19t20 48q0 28 -17 49t-41.5 36.5t-49 32.5t-41.5 46t-17 68q0 30 11.5 53t27.5 37.5l32 29t27.5 35t11.5 47.5q0 35 -23 55.5t-62 20.5q-58 0 -79.5 -32.5t-21.5 -103.5v-505h-104v500 q0 107 54.5 161.5t158.5 54.5q85 0 130.5 -37t45.5 -101q0 -40 -11 -67.5t-27 -41.5t-31.5 -25.5t-26.5 -27t-11 -38.5q0 -24 17.5 -43.5t42 -35.5t49 -34.5t42 -49.5t17.5 -71z"/>
<glyph horiz-adv-x="501" glyph-name="agrave" unicode="à" d="M427 0h-80l-8 54q-74 -64 -154 -64q-73 0 -111.5 36t-38.5 102q0 79 63.5 124.5t190.5 45.5h36v45q0 45 -24.5 67t-78.5 22q-67 0 -146 -29l-15 63q93 41 189 41q90 0 133.5 -40t43.5 -111v-356zM325 115v118h-43q-81 0 -113 -23.5t-32 -66.5q0 -36 20 -57t57 -21 q53 0 111 50zM303 590l-47 -32l-154 120l70 44z"/>
<glyph horiz-adv-x="501" glyph-name="aacute" unicode="á" d="M427 0h-80l-8 54q-74 -64 -154 -64q-73 0 -111.5 36t-38.5 102q0 79 63.5 124.5t190.5 45.5h36v45q0 45 -24.5 67t-78.5 22q-67 0 -146 -29l-15 63q93 41 189 41q90 0 133.5 -40t43.5 -111v-356zM325 115v118h-43q-81 0 -113 -23.5t-32 -66.5q0 -36 20 -57t57 -21 q53 0 111 50zM394 679l-159 -121l-45 32l135 133z"/>
<glyph horiz-adv-x="501" glyph-name="acircumflex" unicode="â" d="M427 0h-80l-8 54q-74 -64 -154 -64q-73 0 -111.5 36t-38.5 102q0 79 63.5 124.5t190.5 45.5h36v45q0 45 -24.5 67t-78.5 22q-67 0 -146 -29l-15 63q93 41 189 41q90 0 133.5 -40t43.5 -111v-356zM325 115v118h-43q-81 0 -113 -23.5t-32 -66.5q0 -36 20 -57t57 -21 q53 0 111 50zM385 599l-30 -38l-109 80l-108 -80l-31 38l142 129z"/>
<glyph horiz-adv-x="501" glyph-name="atilde" unicode="ã" d="M427 0h-80l-8 54q-74 -64 -154 -64q-73 0 -111.5 36t-38.5 102q0 79 63.5 124.5t190.5 45.5h36v45q0 45 -24.5 67t-78.5 22q-67 0 -146 -29l-15 63q93 41 189 41q90 0 133.5 -40t43.5 -111v-356zM325 115v118h-43q-81 0 -113 -23.5t-32 -66.5q0 -36 20 -57t57 -21 q53 0 111 50zM404 665q-25 -45 -50 -63.5t-61 -18.5q-35 0 -70 26.5t-48 26.5q-14 0 -24.5 -10.5t-32.5 -40.5l-43 29q25 44 49.5 63t61.5 19q33 0 69.5 -27t47.5 -27q14 0 25 10.5t33 41.5z"/>
<glyph horiz-adv-x="501" glyph-name="adieresis" unicode="ä" d="M427 0h-80l-8 54q-74 -64 -154 -64q-73 0 -111.5 36t-38.5 102q0 79 63.5 124.5t190.5 45.5h36v45q0 45 -24.5 67t-78.5 22q-67 0 -146 -29l-15 63q93 41 189 41q90 0 133.5 -40t43.5 -111v-356zM325 115v118h-43q-81 0 -113 -23.5t-32 -66.5q0 -36 20 -57t57 -21 q53 0 111 50zM394 639q0 -28 -11.5 -38.5t-40.5 -10.5t-40.5 10.5t-11.5 38.5t11 38t41 10q29 0 40.5 -10t11.5 -38zM199 639q0 -27 -11.5 -38t-39.5 -11q-30 0 -42 11t-12 38q0 28 12 38t42 10q29 0 40 -10t11 -38z"/>
<glyph horiz-adv-x="501" glyph-name="aring" unicode="å" d="M427 0h-80l-8 54q-74 -64 -154 -64q-73 0 -111.5 36t-38.5 102q0 79 63.5 124.5t190.5 45.5h36v45q0 45 -24.5 67t-78.5 22q-67 0 -146 -29l-15 63q93 41 189 41q90 0 133.5 -40t43.5 -111v-356zM325 115v118h-43q-81 0 -113 -23.5t-32 -66.5q0 -36 20 -57t57 -21 q53 0 111 50zM359 647q0 -46 -30 -71.5t-82 -25.5q-109 0 -109 94q0 42 31.5 68.5t81.5 26.5q108 0 108 -92zM291 644q0 44 -42 44q-43 0 -43 -44q0 -43 43 -43q42 0 42 43z"/>
<glyph horiz-adv-x="778" glyph-name="ae" unicode="æ" d="M722 235h-297v-11q0 -154 126 -154q73 0 153 29l17 -60q-98 -49 -193 -49q-127 0 -172 94q-66 -94 -171 -94q-73 0 -111.5 36t-38.5 102q0 79 63 124t191 45h35v46q0 45 -24.5 67t-78.5 22q-66 0 -145 -29l-15 63q93 41 188 41q109 0 142 -70q52 71 144 71 q203 0 187 -273zM623 297v3q0 137 -94 137q-47 0 -73.5 -38.5t-29.5 -101.5h197zM324 142v93h-43q-81 0 -112 -23.5t-31 -64.5q0 -38 19.5 -59.5t57.5 -21.5q64 0 109 76z"/>
<glyph horiz-adv-x="429" glyph-name="ccedilla" unicode="ç" d="M400 64q-68 -73 -165 -73q-193 0 -193 251q0 121 57 193.5t151 72.5q84 0 138 -62l-37 -53q-42 37 -91 37q-53 0 -82 -45.5t-29 -129.5q0 -185 106 -185q61 0 111 47zM274 -43q11 -83 -78 -138l-58 27q31 28 41.5 52t5.5 59h89z"/>
<glyph horiz-adv-x="497" glyph-name="egrave" unicode="è" d="M445 232h-297v-9q0 -153 125 -153q75 0 153 29l17 -60q-96 -49 -192 -49q-209 0 -209 245q0 131 56.5 202t158.5 71q204 0 188 -276zM345 298v3q0 136 -94 136q-46 0 -73 -39t-30 -100h197zM310 590l-47 -32l-154 120l70 44z"/>
<glyph horiz-adv-x="497" glyph-name="eacute" unicode="é" d="M445 232h-297v-9q0 -153 125 -153q75 0 153 29l17 -60q-96 -49 -192 -49q-209 0 -209 245q0 131 56.5 202t158.5 71q204 0 188 -276zM345 298v3q0 136 -94 136q-46 0 -73 -39t-30 -100h197zM394 679l-159 -121l-45 32l135 133z"/>
<glyph horiz-adv-x="497" glyph-name="ecircumflex" unicode="ê" d="M445 232h-297v-9q0 -153 125 -153q75 0 153 29l17 -60q-96 -49 -192 -49q-209 0 -209 245q0 131 56.5 202t158.5 71q204 0 188 -276zM345 298v3q0 136 -94 136q-46 0 -73 -39t-30 -100h197zM393 599l-30 -38l-109 80l-108 -80l-31 38l142 129z"/>
<glyph horiz-adv-x="497" glyph-name="edieresis" unicode="ë" d="M445 232h-297v-9q0 -153 125 -153q75 0 153 29l17 -60q-96 -49 -192 -49q-209 0 -209 245q0 131 56.5 202t158.5 71q204 0 188 -276zM345 298v3q0 136 -94 136q-46 0 -73 -39t-30 -100h197zM404 639q0 -28 -11.5 -38.5t-40.5 -10.5t-40.5 10.5t-11.5 38.5t11 38t41 10 q29 0 40.5 -10t11.5 -38zM209 639q0 -27 -11.5 -38t-39.5 -11q-30 0 -42 11t-12 38q0 28 12 38t42 10q29 0 40 -10t11 -38z"/>
<glyph horiz-adv-x="253" glyph-name="igrave" unicode="ì" d="M178 0h-103v498h103v-498zM202 590l-47 -32l-154 120l70 44z"/>
<glyph horiz-adv-x="253" glyph-name="iacute" unicode="í" d="M178 0h-103v498h103v-498zM257 679l-159 -121l-45 32l135 133z"/>
<glyph horiz-adv-x="253" glyph-name="icircumflex" unicode="î" d="M178 0h-103v498h103v-498zM265 599l-30 -38l-109 80l-108 -80l-31 38l142 129z"/>
<glyph horiz-adv-x="253" glyph-name="idieresis" unicode="ï" d="M178 0h-103v498h103v-498zM277 639q0 -28 -11.5 -38.5t-40.5 -10.5t-40.5 10.5t-11.5 38.5t11 38t41 10q29 0 40.5 -10t11.5 -38zM82 639q0 -27 -11.5 -38t-39.5 -11q-30 0 -42 11t-12 38q0 28 12 38t42 10q29 0 40 -10t11 -38z"/>
<glyph horiz-adv-x="526" glyph-name="eth" unicode="ð" d="M476 303q0 -165 -62 -238.5t-167 -73.5q-103 0 -155 63.5t-52 177.5q0 127 61 198t167 71q44 0 58 -7q-20 43 -56 86l-98 -44l-41 50l96 43q-41 43 -89 80h130q35 -29 55 -50l90 40l42 -51l-88 -39q109 -137 109 -306zM364 279q0 80 -17 139q-33 11 -76 11 q-56 0 -88 -44.5t-32 -132.5q0 -181 109 -181q49 0 76.5 43.5t27.5 164.5z"/>
<glyph horiz-adv-x="543" glyph-name="ntilde" unicode="ñ" d="M472 285q0 -28 -2 -128t-2 -157h-102q0 51 1 143.5t1 120.5q0 90 -20 125.5t-62 35.5q-46 0 -108 -50v-375h-103v498h85l8 -56q73 66 154 66q75 0 112.5 -52.5t37.5 -170.5zM438 665q-25 -45 -50 -63.5t-61 -18.5q-35 0 -70 26.5t-48 26.5q-14 0 -24.5 -10.5t-32.5 -40.5 l-43 29q25 44 49.5 63t61.5 19q33 0 69.5 -27t47.5 -27q14 0 25 10.5t33 41.5z"/>
<glyph horiz-adv-x="525" glyph-name="ograve" unicode="ò" d="M483 261q0 -134 -61.5 -202.5t-169.5 -68.5q-210 0 -210 249q0 134 61 201.5t170 67.5q210 0 210 -247zM377 238q0 106 -28 149.5t-88 43.5q-113 0 -113 -170q0 -107 28 -150.5t88 -43.5q113 0 113 171zM318 590l-47 -32l-154 120l70 44z"/>
<glyph horiz-adv-x="525" glyph-name="oacute" unicode="ó" d="M483 261q0 -134 -61.5 -202.5t-169.5 -68.5q-210 0 -210 249q0 134 61 201.5t170 67.5q210 0 210 -247zM377 238q0 106 -28 149.5t-88 43.5q-113 0 -113 -170q0 -107 28 -150.5t88 -43.5q113 0 113 171zM407 679l-159 -121l-45 32l135 133z"/>
<glyph horiz-adv-x="525" glyph-name="ocircumflex" unicode="ô" d="M483 261q0 -134 -61.5 -202.5t-169.5 -68.5q-210 0 -210 249q0 134 61 201.5t170 67.5q210 0 210 -247zM377 238q0 106 -28 149.5t-88 43.5q-113 0 -113 -170q0 -107 28 -150.5t88 -43.5q113 0 113 171zM406 599l-30 -38l-109 80l-108 -80l-31 38l142 129z"/>
<glyph horiz-adv-x="525" glyph-name="otilde" unicode="õ" d="M483 261q0 -134 -61.5 -202.5t-169.5 -68.5q-210 0 -210 249q0 134 61 201.5t170 67.5q210 0 210 -247zM377 238q0 106 -28 149.5t-88 43.5q-113 0 -113 -170q0 -107 28 -150.5t88 -43.5q113 0 113 171zM429 665q-25 -45 -50 -63.5t-61 -18.5q-35 0 -70 26.5t-48 26.5 q-14 0 -24.5 -10.5t-32.5 -40.5l-43 29q25 44 49.5 63t61.5 19q33 0 69.5 -27t47.5 -27q14 0 25 10.5t33 41.5z"/>
<glyph horiz-adv-x="525" glyph-name="odieresis" unicode="ö" d="M483 261q0 -134 -61.5 -202.5t-169.5 -68.5q-210 0 -210 249q0 134 61 201.5t170 67.5q210 0 210 -247zM377 238q0 106 -28 149.5t-88 43.5q-113 0 -113 -170q0 -107 28 -150.5t88 -43.5q113 0 113 171zM414 639q0 -28 -11.5 -38.5t-40.5 -10.5t-40.5 10.5t-11.5 38.5 t11 38t41 10q29 0 40.5 -10t11.5 -38zM219 639q0 -27 -11.5 -38t-39.5 -11q-30 0 -42 11t-12 38q0 28 12 38t42 10q29 0 40 -10t11 -38z"/>
<glyph glyph-name="divide" unicode="÷" d="M309 472q0 -30 -13 -42t-46 -12t-46 11.5t-13 43.5q0 30 13 41.5t46 11.5q32 0 45.5 -12t13.5 -42zM454 247h-409v71h409v-71zM309 93q0 -30 -13 -42t-46 -12t-46 11.5t-13 41.5q0 31 13.5 43t45.5 12t45.5 -12t13.5 -42z"/>
<glyph horiz-adv-x="525" glyph-name="oslash" unicode="ø" d="M483 261q0 -134 -61.5 -202.5t-169.5 -68.5q-55 0 -94 20l-51 -86l-57 31l53 87q-61 61 -61 197q0 134 61 201.5t170 67.5q58 0 98 -20l52 86l53 -31l-52 -88q59 -62 59 -194zM327 418q-27 18 -66 18q-119 0 -119 -174q0 -83 24 -120zM383 238q0 76 -24 115l-158 -274 q26 -17 63 -17q119 0 119 176z"/>
<glyph horiz-adv-x="543" glyph-name="ugrave" unicode="ù" d="M468 0h-84l-8 56q-74 -66 -154 -66q-75 0 -112.5 52.5t-37.5 171.5q0 27 1.5 127t1.5 157h103q0 -51 -1.5 -143t-1.5 -121q0 -90 20 -125.5t62 -35.5q44 0 108 50v375h103v-498zM331 590l-47 -32l-154 120l70 44z"/>
<glyph horiz-adv-x="543" glyph-name="uacute" unicode="ú" d="M468 0h-84l-8 56q-74 -66 -154 -66q-75 0 -112.5 52.5t-37.5 171.5q0 27 1.5 127t1.5 157h103q0 -51 -1.5 -143t-1.5 -121q0 -90 20 -125.5t62 -35.5q44 0 108 50v375h103v-498zM421 679l-159 -121l-45 32l135 133z"/>
<glyph horiz-adv-x="543" glyph-name="ucircumflex" unicode="û" d="M468 0h-84l-8 56q-74 -66 -154 -66q-75 0 -112.5 52.5t-37.5 171.5q0 27 1.5 127t1.5 157h103q0 -51 -1.5 -143t-1.5 -121q0 -90 20 -125.5t62 -35.5q44 0 108 50v375h103v-498zM416 599l-30 -38l-109 80l-108 -80l-31 38l142 129z"/>
<glyph horiz-adv-x="543" glyph-name="udieresis" unicode="ü" d="M468 0h-84l-8 56q-74 -66 -154 -66q-75 0 -112.5 52.5t-37.5 171.5q0 27 1.5 127t1.5 157h103q0 -51 -1.5 -143t-1.5 -121q0 -90 20 -125.5t62 -35.5q44 0 108 50v375h103v-498zM422 639q0 -28 -11.5 -38.5t-40.5 -10.5t-40.5 10.5t-11.5 38.5t11 38t41 10q29 0 40.5 -10 t11.5 -38zM227 639q0 -27 -11.5 -38t-39.5 -11q-30 0 -42 11t-12 38q0 28 12 38t42 10q29 0 40 -10t11 -38z"/>
<glyph horiz-adv-x="470" glyph-name="yacute" unicode="ý" d="M448 498q-29 -159 -67 -281t-75.5 -195.5t-80 -119.5t-78.5 -63t-74 -17q-28 0 -69 17v61q19 -3 47 -3q49 0 79 27q36 33 36 74q0 38 -28 115l-124 385h111l89 -288q31 -94 25 -137q73 195 102 425h107zM321 679l-159 -121l-45 32l135 133z"/>
<glyph horiz-adv-x="526" glyph-name="thorn" unicode="þ" d="M482 269q0 -141 -67 -210t-177 -69q-39 0 -60 4v-167h-103v882h103v-256q67 55 131 55q81 0 127 -67.5t46 -171.5zM376 251q0 82 -25.5 129.5t-69.5 47.5q-47 0 -103 -52v-300q27 -11 69 -11q58 0 93.5 47t35.5 139z"/>
</font>
</defs>
</svg>
